<?xml version="1.0" encoding="utf-8"?>
<!-- Generator: Adobe Illustrator 21.1.0, SVG Export Plug-In . SVG Version: 6.00 Build 0)  -->
<svg version="1.1" id="Layer_1" xmlns="http://www.w3.org/2000/svg" xmlns:xlink="http://www.w3.org/1999/xlink" x="0px" y="0px"
	 viewBox="0 0 271 293" style="enable-background:new 0 0 271 293;" xml:space="preserve">
<style type="text/css">
	.st0{fill:url(#SVGID_1_);}
	.st1{fill:url(#SVGID_2_);}
	.st2{fill:#FF671B;}
</style>
<g>
	
		<linearGradient id="SVGID_1_" gradientUnits="userSpaceOnUse" x1="3824.7429" y1="261.2651" x2="3697.918" y2="134.4403" gradientTransform="matrix(-1 0 0 1 3896.926 0)">
		<stop  offset="0.3" style="stop-color:#F16528"/>
		<stop  offset="0.4725" style="stop-color:#F26B27"/>
		<stop  offset="0.6981" style="stop-color:#F47B23"/>
		<stop  offset="0.9522" style="stop-color:#F7961D"/>
		<stop  offset="1" style="stop-color:#F89C1C"/>
	</linearGradient>
	<path class="st0" d="M256.2,192.3c0,0,0.8-0.1,1.4,0.8c0.5,0.8,0.1,1.6,0.1,1.6s-18.2,34.8-33.3,34.8H46.8
		c-15.1,0-33.3-34.8-33.3-34.8s-0.4-0.8,0.1-1.6c0.6-0.9,1.4-0.8,1.4-0.8h69.7c14.1,0,25.5,11.4,25.5,25.5
		c0-14.1,11.4-25.5,25.5-25.5H256.2z"/>
	<linearGradient id="SVGID_2_" gradientUnits="userSpaceOnUse" x1="45.3995" y1="213.8123" x2="225.7643" y2="33.4476">
		<stop  offset="0.1" style="stop-color:#006880"/>
		<stop  offset="0.3058" style="stop-color:#006D86"/>
		<stop  offset="0.5751" style="stop-color:#007A96"/>
		<stop  offset="0.8784" style="stop-color:#0090B1"/>
		<stop  offset="1" style="stop-color:#009ABE"/>
	</linearGradient>
	<path class="st1" d="M262.8,175.3h-49.7c-0.5,0-0.9-0.2-1.2-0.5s-0.5-0.7-0.5-1.2c0-0.5,0.2-0.7,0.2-0.7
		c5.6-11.3,8.8-24.1,8.8-37.6c0-46.8-38.1-84.9-84.9-84.9s-84.9,38.1-84.9,84.9c0,13.5,3.2,26.2,8.8,37.6c0,0,0.2,0.3,0.2,0.7
		c0,0.4-0.2,0.9-0.6,1.3s-0.9,0.4-1.1,0.4H8.3c-0.7,0-1.5-0.2-2.2-0.8s-1-1.6-1-1.6c-3.4-11.9-5.3-24.5-5.3-37.6
		c0-75,60.8-135.8,135.8-135.8c75,0,135.8,60.8,135.8,135.8c0,13-1.8,25.6-5.3,37.5c0,0-0.3,1-1.1,1.7
		C264.2,175.2,263.3,175.3,262.8,175.3z"/>
</g>
<g>
	<path class="st2" d="M106.5,246.2c0-0.9,0-1.6,0-2.5c4.3,0,8.5,0,12.8,0c0,0.1,0.1,0.1,0.1,0.2c0.2,2.3,0.2,2.3-2.1,2.4
		c-0.7,0.1-1.5,0.1-2.4,0.2c3.4,10.1,6.7,20,10,29.9c0.1,0,0.2,0,0.3,0c3.3-9.9,6.7-19.8,10.1-29.9c-1.7-0.1-3.2-0.2-4.7-0.4
		c0-0.8,0-1.6,0-2.5c4.2,0,8.4,0,12.6,0c0,0.8,0,1.5,0,2.5c-1,0.1-2.1,0.2-3.1,0.2c-1,0-1.5,0.4-1.8,1.4c-3.6,10.6-7.4,21.2-11,31.9
		c-0.3,1-0.8,1.3-1.8,1.3c-2.4-0.1-2.4,0-3.2-2.2c-3.3-9.2-6.5-18.5-9.7-27.7c-0.4-1.2-0.8-2.5-1.4-3.7c-0.2-0.4-0.7-0.7-1.1-0.8
		C108.9,246.3,107.8,246.3,106.5,246.2z"/>
	<path class="st2" d="M245.7,292.9c0.2-0.8,0.4-1.5,0.6-2.2c1,0.1,1.9,0.2,2.9,0.1c1.4,0,2.7-0.5,3.3-1.8c1.2-2.7,2.1-5.5,3.3-8.5
		c-1.6,0.1-1.8-1-2.2-2c-2.5-6.7-5.1-13.5-7.6-20.2c-0.3-0.9-0.8-1.4-1.7-1.3c-0.1,0-0.2,0-0.4,0c-2.3-0.1-2.3-0.1-2-2.7
		c3.8,0,7.5,0,11.4,0c0,0.8,0,1.6,0,2.5c-1.3,0.1-2.6,0.3-4.1,0.4c2.5,7,5,13.8,7.6,20.8c2.6-7,5-13.8,7.6-20.8
		c-1.4-0.1-2.6-0.2-4-0.4c0-0.9,0-1.6,0-2.5c3.6,0,7.3,0,10.9,0c0,0.8,0,1.6,0,2.5c-0.9,0.1-1.7,0.2-2.6,0.2c-0.8,0-1.3,0.3-1.6,1.2
		c-2.9,8-5.9,16-8.9,24c-0.8,2.2-1.8,4.4-2.6,6.7C254.1,293.2,250.1,294.3,245.7,292.9z"/>
	<path class="st2" d="M158.3,277.8c1.3,0.1,2.5,0.2,3.8,0.3c0,0.5,0,1,0,1.5c0.1,0.7-0.3,1-0.9,1c-1.1,0.1-2.2,0.2-3.3,0.2
		c-2,0-2.8-0.8-3-2.7c0-0.2,0-0.5-0.1-0.9c-0.3,0.3-0.5,0.4-0.7,0.6c-2.8,3.1-6.3,3.9-10.2,3.2c-3.6-0.7-5.8-3.4-6-7.2
		c-0.2-3.9,1.7-6.6,5.3-7.8c2.9-0.9,5.9-0.7,8.9-0.4c0.9,0.1,1.7,0.2,2.8,0.4c-0.1-2-0.1-4-0.4-5.9c-0.4-2.2-2.2-3.7-4.6-3.7
		c-2.2,0-4.4,0.4-6.6,0.7c-0.9,0.1-1.2,0.7-1.3,1.5c0,0.8-0.1,1.6-0.2,2.4c-0.2,0.1-0.3,0.2-0.4,0.2c-2.1,0.1-2.1,0.1-2.2-1.9
		c-0.2-3.1,0.2-4,3.2-4.7c2.3-0.6,4.7-1,7-1c5.8-0.1,8.7,3,8.8,8.8c0,4.6,0,9.1,0,13.7C158.3,276.7,158.3,277.2,158.3,277.8z
		 M154.7,268.7c-2.2-0.6-6.5-0.9-8.6-0.6c-3.1,0.5-4.8,2.5-4.7,5.5c0.1,3,1.9,4.9,4.8,5.1c2.3,0.1,4.4-0.6,6.2-2
		C155.1,274.5,155,271.7,154.7,268.7z"/>
	<path class="st2" d="M31.4,278.3c0,0.9,0,1.7,0,2.5c-3.8,0-7.5,0-11.3,0c0-0.8,0-1.6,0-2.5c1-0.1,2-0.2,3-0.3
		c0.6,0,0.9-0.2,0.9-0.9c0-6.5,0-12.9,0-19.4c0-0.1-0.1-0.2-0.1-0.4c-1.1-0.1-2.2-0.2-3.3-0.3c-0.4-2.1-0.2-2.3,1.8-2.6
		c0.5-0.1,1-0.1,1.5-0.1c2.4-0.1,2.9,0.2,3.8,2.3c1.3-0.7,2.6-1.6,4-2.1c2.4-1,4.9-1,7.4-0.4c3,0.7,4.7,2.7,5.3,5.7
		c0.2,1.2,0.3,2.5,0.3,3.8c0,4.3,0,8.7,0,13c0,0.4,0,0.9,0,1.4c1.4,0.1,2.6,0.2,3.9,0.3c0,0.8,0,1.5,0,2.6c-1.8,0-3.6,0.2-5.4,0.1
		c-1.4-0.1-1.9-1-1.9-2.7c0-4.9,0-9.9,0-14.8c0-1.1-0.1-2.2-0.3-3.2c-0.3-1.5-1.2-2.7-2.7-3.3c-2.9-1.3-7.8-0.2-9.8,2.1
		c-0.4,0.5-0.7,1.2-0.7,1.9c-0.1,5.3,0,10.6-0.1,15.8c0,1,0.4,1.3,1.3,1.3C29.6,278,30.4,278.2,31.4,278.3z"/>
	<path class="st2" d="M87.5,268.6c-5.9,0-11.7,0-17.5,0c-1,5.2,2.6,9.9,7.8,10.1c2.8,0.1,5.4-0.6,8-1.7c0.3,0.7,0.6,1.3,1,2.1
		c-3.8,2.2-7.9,2.7-12.1,2c-3.8-0.6-6.2-2.9-7.4-6.5c-0.5-1.6-0.8-3.3-0.9-5c-0.3-3.3-0.1-6.7,1.2-9.8c1.6-3.7,4.5-5.6,8.4-6
		c3.2-0.3,6.2,0,8.5,2.5c0.8,0.9,1.5,2.1,2,3.2C87.5,262.4,87.6,265.4,87.5,268.6z M84.4,266.1c-0.3-1.8-0.4-3.4-0.8-5
		c-0.6-2.3-1.9-4.1-4.4-4.5c-2.7-0.5-5.2-0.2-7.1,2.1c-1.8,2.1-2.2,4.7-2.3,7.4C74.6,266.1,79.3,266.1,84.4,266.1z"/>
	<path class="st2" d="M186.3,273.6c0.9,0,1.6,0,2.5,0c0.1,1,0.1,2,0.2,2.9c0.1,0.4,0.4,0.9,0.7,1c2.7,1,5.6,1.5,8.5,1
		c2.8-0.5,4.4-2.2,4.4-4.8c0-1.6-0.6-2.9-2.1-3.5c-1.6-0.6-3.3-1-4.9-1.5c-1.7-0.5-3.5-0.9-5.2-1.5c-2.7-1-4.1-3-4.1-5.9
		c0-3,1.2-5.3,4-6.5c3.1-1.4,6.3-1.2,9.6-0.6c1,0.2,2,0.5,2.9,0.9c1.4,0.5,2,1.5,1.9,3c-0.1,1.1-0.1,2.1-0.2,3.3c-0.9,0-1.6,0-2.5,0
		c-0.1-1-0.1-2-0.3-3c-0.1-0.4-0.4-0.9-0.8-1c-2.5-0.8-5.1-1.1-7.7-0.6c-1.5,0.3-2.6,1.2-3.2,2.6c-0.9,2.4-0.1,4.4,2.3,5.3
		c1.9,0.7,3.8,1,5.7,1.5c1.4,0.4,2.8,0.7,4.1,1.4c4.6,2.2,5.2,8.7,1.1,11.8c-1.7,1.3-3.6,1.8-5.6,1.9c-3.2,0.2-6.4,0-9.5-1.3
		c-1.8-0.8-2.2-1.4-2.1-3.4C186.1,275.6,186.2,274.6,186.3,273.6z"/>
	<path class="st2" d="M2.4,246.2c0-0.9,0-1.7,0-2.5c4.2,0,8.5,0,12.8,0c0,0.8,0,1.5,0,2.5c-1.5,0.1-3,0.2-4.5,0.3
		c0,10.5,0,20.9,0,31.4c1.5,0.1,3,0.2,4.5,0.4c0,0.8,0,1.6,0,2.5c-4.3,0-8.5,0-12.8,0c0-0.8,0-1.6,0-2.5c1.1-0.1,2.2-0.3,3.3-0.2
		c1,0,1.3-0.4,1.3-1.4c0-8.6,0-17.1,0-25.7c0-1.1,0-2.2,0-3.3c0-0.8-0.2-1.2-1.1-1.2C4.8,246.4,3.7,246.3,2.4,246.2z"/>
	<path class="st2" d="M228.4,257.2c-1.3,0-2.4,0-3.5,0c-0.1-0.2-0.1-0.3-0.1-0.4c0.1-2.5-0.3-2.1,2.1-2.3c1.2-0.1,1.9-0.5,1.8-1.8
		c0-1,0.3-2,0.4-3.1c0-1.1,0.4-1.7,1.6-1.6c0.4,0,0.7,0,1.3,0c0,2,0,4.1,0,6.2c2.4,0,4.7,0,7,0c0,1,0,1.9,0,2.9c-2.3,0-4.5,0-6.9,0
		c0,0.6-0.1,1-0.1,1.4c0,4.9,0.1,9.8,0,14.7c-0.1,5,2.7,5.6,6.2,5.1c0.5-0.1,1-0.2,1.6-0.3c0.2,0.8,0.4,1.6,0.7,2.4
		c-2.8,0.8-5.5,1.1-8.2,0.1c-2.2-0.8-3.4-2.6-3.7-4.9c-0.2-1.3-0.2-2.7-0.2-4.1c0-4.3,0-8.7,0-13
		C228.4,258.2,228.4,257.8,228.4,257.2z"/>
	<path class="st2" d="M56.5,254.3c2.4,0,4.7,0,6.9,0c0,1,0,1.9,0,2.9c-2.2,0-4.5,0-6.9,0c0,0.6-0.1,1-0.1,1.5c0,4.9,0.1,9.8,0,14.7
		c-0.1,4.8,2.5,5.6,6.1,5.1c0.6-0.1,1.1-0.2,1.7-0.3c0.2,0.8,0.4,1.6,0.7,2.4c-2.9,0.8-5.7,1.2-8.4,0c-2.5-1.1-3.6-3.3-3.6-6
		c0-5.2,0-10.5,0-15.7c0-0.5,0-1,0-1.6c-1.3,0-2.4,0-3.6,0c0-0.5,0-0.9,0-1.2c-0.2-1.1,0.3-1.4,1.4-1.5c2.3-0.2,2.3-0.2,2.6-2.5
		c0.2-1.3,0.4-2.5,0.5-3.8c0.9-0.1,1.7-0.1,2.7-0.2C56.5,250.1,56.5,252.1,56.5,254.3z"/>
	<path class="st2" d="M103.7,278.3c0,0.9,0,1.7,0,2.5c-4,0-7.8,0-11.8,0c0-0.8,0-1.6,0-2.5c1-0.1,2.1-0.1,3.1-0.3
		c0.3-0.1,0.8-0.5,0.8-0.7c0-6.5,0-13.1,0-19.6c0-0.1-0.1-0.1-0.1-0.3c-1-0.1-2.1-0.2-3.2-0.3c-0.3-2.1-0.2-2.3,1.8-2.6
		c0.1,0,0.2,0,0.4-0.1c3.5-0.4,4.3,0.2,4.7,3.9c2.5-3.5,5.8-4.7,9.8-4.5c0,1.1,0,2.1,0,3.2c-0.7,0-1.4,0.1-2.1,0.1
		c-2.1,0.1-4,0.6-5.6,2c-1.3,1.2-2.2,2.6-2.1,4.5c0.1,4.4,0,8.7,0,13.1c0,0.9,0.2,1.3,1.2,1.3C101.6,278,102.6,278.2,103.7,278.3z"
		/>
	<path class="st2" d="M172.9,277.9c1.5,0.1,2.9,0.3,4.4,0.4c0,0.8,0,1.6,0,2.5c-3.9,0-7.8,0-11.8,0c0-0.8,0-1.5,0-2.5
		c1-0.1,2-0.2,3-0.3c0.6,0,0.9-0.2,0.9-0.8c0-6.5,0-13,0-19.5c0-0.1-0.1-0.2-0.1-0.3c-1.1-0.1-2.2-0.2-3.3-0.4
		c-0.3-2.2-0.2-2.3,1.9-2.6c0.1,0,0.2,0,0.2,0c3.5-0.4,4.3,0.2,4.8,3.9c2.4-3.5,5.7-4.7,9.8-4.4c0,1.1,0,2.1,0,3.2
		c-1.2,0.1-2.4,0.1-3.6,0.3c-2.6,0.4-4.6,1.7-5.8,4.1c-0.2,0.4-0.4,0.8-0.4,1.2C172.9,267.6,172.9,272.7,172.9,277.9z"/>
	<path class="st2" d="M214.1,257.3c-1-0.1-1.9-0.2-2.9-0.3c0-0.9,0-1.7,0-2.7c1.1,0,2.1,0,3.1,0c1,0,2.1,0,3.2,0
		c0,7.9,0,15.6,0,23.5c1.2,0.1,2.3,0.2,3.4,0.3c0,0.9,0,1.7,0,2.7c-3.4,0-6.8,0-10.3,0c0-0.9,0-1.7,0-2.6c1.1-0.1,2.2-0.2,3.3-0.4
		C214.1,270.9,214.1,264.2,214.1,257.3z"/>
	<path class="st2" d="M215.3,247.1c-1.4,0-2.6-1.1-2.6-2.4c0-1.4,1.1-2.6,2.6-2.6c1.4,0,2.5,1.1,2.5,2.5
		C217.8,246,216.7,247.1,215.3,247.1z"/>
</g>
</svg>
