<?xml version="1.0" encoding="utf-8"?>
<!-- Generator: Adobe Illustrator 21.1.0, SVG Export Plug-In . SVG Version: 6.00 Build 0)  -->
<svg version="1.1" id="Layer_1" xmlns="http://www.w3.org/2000/svg" xmlns:xlink="http://www.w3.org/1999/xlink" x="0px" y="0px"
	 width="250px" height="250px" viewBox="0 0 250 250" style="enable-background:new 0 0 250 250;" xml:space="preserve">
<style type="text/css">
	.st0{fill:url(#SVGID_1_);}
	.st1{fill:url(#SVGID_2_);}
	.st2{fill:#FF671B;}
	.st3{fill:none;stroke:#A6A8AB;stroke-width:0.75;stroke-miterlimit:10;}
</style>
<title>SquareNormal</title>
<linearGradient id="SVGID_1_" gradientUnits="userSpaceOnUse" x1="3277.884" y1="70.202" x2="3195.5247" y2="152.5611" gradientTransform="matrix(-1 0 0 -1 3359.9299 250.13)">
	<stop  offset="0.3" style="stop-color:#F16528"/>
	<stop  offset="0.47" style="stop-color:#F26B27"/>
	<stop  offset="0.7" style="stop-color:#F47B23"/>
	<stop  offset="0.95" style="stop-color:#F7961D"/>
	<stop  offset="1" style="stop-color:#F89C1C"/>
</linearGradient>
<path class="st0" d="M201.5,135.1c0.6,0,1.1,0.5,1.1,1.1c0,0.2,0,0.3-0.1,0.5c0,0-11.8,22.6-21.6,22.6H65.6
	c-9.8,0-21.6-22.6-21.6-22.6c-0.3-0.5,0-1.2,0.5-1.5c0.1-0.1,0.3-0.1,0.5-0.1h45.2c9.1,0,16.5,7.4,16.5,16.5
	c0-9.1,7.4-16.5,16.5-16.5H201.5z"/>
<linearGradient id="SVGID_2_" gradientUnits="userSpaceOnUse" x1="86.3906" y1="101.0169" x2="203.4753" y2="218.1016" gradientTransform="matrix(1 0 0 -1 -21.72 250.13)">
	<stop  offset="0.1" style="stop-color:#006880"/>
	<stop  offset="0.31" style="stop-color:#006D86"/>
	<stop  offset="0.58" style="stop-color:#007A96"/>
	<stop  offset="0.88" style="stop-color:#0090B1"/>
	<stop  offset="1" style="stop-color:#009ABE"/>
</linearGradient>
<path class="st1" d="M205.9,124.1h-32.2c-0.6,0-1.1-0.5-1.1-1.1c0-0.2,0-0.3,0.1-0.5c13.5-27.3,2.3-60.3-25-73.8s-60.3-2.3-73.8,25
	c-7.6,15.4-7.6,33.4,0,48.8c0.1,0.2,0.1,0.3,0.1,0.5c0,0.6-0.5,1.1-1.1,1.1H40.6c-0.5,0-1.1-0.2-1.5-0.6c-0.3-0.3-0.6-0.6-0.7-1
	C25,75.7,52.1,26.9,98.9,13.4S194.5,27.1,208,73.9c4.6,15.9,4.6,32.7,0,48.6c-0.1,0.4-0.4,0.8-0.7,1.1
	C206.9,123.9,206.4,124.1,205.9,124.1z"/>
<polygon class="st2" points="35,173.9 38,174.1 38,194 35,194.2 35,196.4 44.1,196.4 44.1,194.2 41,194 41,174.1 44.1,173.9 
	44.1,171.7 35,171.7 "/>
<path class="st2" d="M62.8,184.4c0-4.1-1.9-6-5.8-6c-2-0.1-3.9,0.7-5.3,2.1c-0.2-1.1-1-1.7-2.3-1.7c-1,0-1.9,0.1-2.8,0.4l-0.1,1.9
	l2.3,0.2V194l-2.5,0.2v2.1h8v-2.1l-2.5-0.2v-11.3c0.7-1.2,2.2-2,4.7-2c2.1,0,3.4,1.2,3.4,3.8v10.2c0,1.2,0.8,2,2.3,2
	c1.1,0,2.2-0.1,3.2-0.4v-2l-2.5-0.2L62.8,184.4z"/>
<path class="st2" d="M73.5,194.4c-1.7,0-2.6-0.9-2.6-2.5v-10.7h4.6v-2.5h-4.6v-4.1l-2.3,0.1l-0.7,4l-2.4,0.4l-0.1,2.1h2.4v10.4
	c0,3.2,1.8,5,5.2,5c1.2,0,2.3-0.2,3.4-0.6l-0.6-2C75.1,194.3,74.3,194.4,73.5,194.4z"/>
<path class="st2" d="M85.1,178.4c-5,0-7.6,3.2-7.6,9c0,6.4,2.7,9.3,7.9,9.3c2.1,0.1,4.2-0.5,6.1-1.6l-0.8-1.8
	c-1.6,0.8-3.3,1.2-5.1,1.2c-3,0-4.8-1.6-5-6h11.4v-1.1C91.9,180.8,89.4,178.4,85.1,178.4z M80.5,186.5c0.2-4.3,1.9-5.8,4.6-5.8
	c2.3,0,3.9,1.3,4,5.8H80.5z"/>
<path class="st2" d="M99.3,181.5v-0.4c0-1.5-0.8-2.3-2.1-2.3c-1,0-1.9,0.1-2.8,0.4l-0.1,1.9l2.3,0.2V194l-2.5,0.2v2.1h8.2v-2.1
	l-2.7-0.2v-9.5c0.6-2.1,2.3-3.3,5.1-3.4h1.2v-2.7h-1C102.5,178.3,100.4,179.5,99.3,181.5z"/>
<polygon class="st2" points="128.2,173.9 128.2,171.7 119.4,171.7 119.4,173.9 122.4,174.1 116.2,192.8 116.1,192.8 109.8,174.1 
	112.7,173.9 112.7,171.7 103.7,171.7 103.7,173.9 106.5,174.1 114.4,196.4 117.5,196.4 125.3,174.1 "/>
<path class="st2" d="M139,184.4c0-3.9-2-6-6.3-6c-2-0.1-4.1,0.4-5.9,1.3c-0.6,0.4-1,1.1-0.9,1.8c0,0.8,0.1,1.5,0.2,2.3h2.1l0.3-2.5
	c1.2-0.5,2.6-0.7,3.9-0.7c2.5,0,3.7,1.2,3.7,3.7v2.3c-1.4-0.3-2.9-0.4-4.4-0.4c-4.4,0-6.5,2.1-6.5,5.3c0,2.9,2,5.1,5.4,5.1
	c2.2,0.1,4.3-0.9,5.5-2.7v0c0,1.6,0.8,2.4,2.3,2.4c1,0,2.1-0.1,3.1-0.5v-1.9L139,194L139,184.4z M136.2,191.1
	c-0.7,2.2-2.7,3.6-5,3.4c-1.6,0.1-2.9-1.1-3-2.7c0-0.1,0-0.3,0-0.4c0-2,1.2-3.2,4-3.2c1.3,0,2.6,0.1,3.9,0.4L136.2,191.1z"/>
<path class="st2" d="M148.6,181.5v-0.4c0-1.5-0.8-2.3-2.1-2.3c-1,0-1.9,0.1-2.8,0.4l-0.1,1.9l2.3,0.2V194l-2.5,0.2v2.1h8.2v-2.1
	l-2.7-0.2v-9.5c0.6-2.1,2.3-3.3,5.1-3.4h1.2v-2.7h-1C151.8,178.3,149.7,179.5,148.6,181.5z"/>
<path class="st2" d="M163.7,186.2c-2-0.5-4.3-0.6-4.3-2.8c0-1.6,1-2.8,3.5-2.8c1.2,0,2.4,0.2,3.6,0.6l0.3,2.5h2.1
	c0.2-0.8,0.2-1.6,0.2-2.4c0-0.7-0.4-1.4-1-1.8c-1.6-0.8-3.4-1.2-5.2-1.1c-4.2,0-6.4,2.1-6.4,5.1c0,3.8,3.4,4.5,5.9,5
	c2.4,0.5,4.8,0.8,4.8,3c0,1.9-1.3,3-4.1,3c-1.4,0-2.8-0.3-4.1-0.8l-0.2-2.4h-2.1c-0.1,0.8-0.2,1.6-0.2,2.4c-0.1,0.8,0.3,1.5,1,1.8
	c1.8,0.8,3.7,1.2,5.6,1.2c4.6,0,6.9-2.1,6.9-5.3C169.9,187.6,166.6,186.9,163.7,186.2z"/>
<path class="st2" d="M175.3,174.4c1.1,0,2-0.9,2-2s-0.9-2-2-2c-1.1,0-2,0.9-2,2S174.2,174.4,175.3,174.4z"/>
<polygon class="st2" points="177.2,178.8 172.4,178.8 172.3,181.1 174.3,181.3 174.3,193.8 172.1,194 172.1,196.4 179.4,196.4 
	179.4,194 177.2,193.8 "/>
<path class="st2" d="M188.3,194.4c-1.7,0-2.6-0.9-2.6-2.5v-10.7h4.6v-2.5h-4.6v-4.1l-2.3,0.1l-0.7,4l-2.4,0.4l-0.1,2.1h2.5v10.4
	c0,3.2,1.8,5,5.2,5c1.2,0,2.3-0.2,3.4-0.6l-0.6-2C189.9,194.3,189.1,194.4,188.3,194.4z"/>
<path class="st2" d="M203.8,178.8v2.1l2.7,0.2l-4.2,11.6c-0.1,0.4-0.3,0.8-0.3,1.2h-0.2c0-0.4-0.1-0.8-0.3-1.2l-4.3-11.6l2.7-0.2
	v-2.1h-8v2.1l2.3,0.2l6.2,16.4l0,0l-1.2,3.3c-0.4,0.9-1.4,1.5-2.4,1.4c-0.6,0-1.3-0.1-1.9-0.2l-0.5,2c0.8,0.2,1.6,0.4,2.4,0.4
	c2.7,0,4-1.2,4.8-3.3l7.5-20l2.4-0.2v-2.1L203.8,178.8z"/>
<line class="st3" x1="36.2" y1="211.5" x2="210.4" y2="211.5"/>
</svg>
