<svg id="Layer_1" data-name="Layer 1" xmlns="http://www.w3.org/2000/svg" xmlns:xlink="http://www.w3.org/1999/xlink" viewBox="0 0 522.22 597.19"><defs><style>.cls-1{fill:url(#linear-gradient);}.cls-2{fill:url(#linear-gradient-2);}.cls-3{fill:#ff671b;}.cls-4{fill:none;stroke:#a6a8ab;stroke-miterlimit:10;stroke-width:0.75px;}</style><linearGradient id="linear-gradient" x1="3554.01" y1="506.47" x2="3310.15" y2="262.62" gradientTransform="matrix(-1, 0, 0, 1, 3728.93, 0)" gradientUnits="userSpaceOnUse"><stop offset="0.3" stop-color="#f16528"/><stop offset="0.47" stop-color="#f26b27"/><stop offset="0.7" stop-color="#f47b23"/><stop offset="0.95" stop-color="#f7961d"/><stop offset="1" stop-color="#f89c1c"/></linearGradient><linearGradient id="linear-gradient-2" x1="123.42" y1="415.23" x2="470.22" y2="68.43" gradientUnits="userSpaceOnUse"><stop offset="0.1" stop-color="#006880"/><stop offset="0.31" stop-color="#006d86"/><stop offset="0.58" stop-color="#007a96"/><stop offset="0.88" stop-color="#0090b1"/><stop offset="1" stop-color="#009abe"/></linearGradient></defs><title>SourceSquareBig</title><path class="cls-1" d="M528.69,373.87a3.27,3.27,0,0,1,2.94,4.68s-34.95,66.86-64,66.86H126.11c-29.1,0-64-66.86-64-66.86A3.27,3.27,0,0,1,65,373.87H198.94a49,49,0,0,1,49,49,49,49,0,0,1,49-49Z" transform="translate(-35.72 -3.18)"/><path class="cls-2" d="M541.51,341.23H446a3.26,3.26,0,0,1-3.26-3.26,2.82,2.82,0,0,1,.33-1.43A162.14,162.14,0,0,0,460,264.28c0-90-73.2-163.19-163.19-163.19S133.63,174.3,133.63,264.28a162.14,162.14,0,0,0,16.9,72.25,3.38,3.38,0,0,1,.33,1.44,3.26,3.26,0,0,1-3.26,3.26H52.14a6.59,6.59,0,0,1-4.31-1.63,6.78,6.78,0,0,1-2-3.08,261.13,261.13,0,0,1-10.14-72.24c0-144.2,116.9-261.1,261.1-261.1s261.1,116.9,261.1,261.1a261.13,261.13,0,0,1-10.12,72.17,6.93,6.93,0,0,1-2.07,3.23A6.8,6.8,0,0,1,541.51,341.23Z" transform="translate(-35.72 -3.18)"/><polygon class="cls-3" points="0.03 485.39 8.88 486.12 8.88 544.88 0.03 545.61 0.03 551.96 26.7 551.96 26.7 545.61 17.74 544.88 17.74 486.12 26.7 485.39 26.7 479.04 0.03 479.04 0.03 485.39"/><path class="cls-3" d="M117.95,519.73c0-12.08-5.63-17.71-17.09-17.71-6.46,0-12.09,2.19-15.63,6.15-.63-3.33-2.81-5.1-6.77-5.1a24.88,24.88,0,0,0-8.33,1.15l-.42,5.52,6.88.52v37.92l-7.5.62v6.36H92.84v-6.36l-7.5-.62V514.62c2.08-3.54,6.56-6,13.86-6,6.35,0,10,3.54,10,11.25v30.11c0,3.65,2.29,5.94,6.67,5.94a32.3,32.3,0,0,0,9.58-1.25v-5.83l-7.5-.52Z" transform="translate(-35.72 -3.18)"/><path class="cls-3" d="M149.62,549.42c-5.1,0-7.81-2.71-7.81-7.4V510.35h13.54v-7.29H141.81V490.76l-6.77.42-2,11.88-7,1-.31,6.25h7.29v30.73c0,9.58,5.42,14.9,15.31,14.9a32,32,0,0,0,10.11-1.67l-1.67-5.83A31.71,31.71,0,0,1,149.62,549.42Z" transform="translate(-35.72 -3.18)"/><path class="cls-3" d="M183.89,502c-14.79,0-22.5,9.48-22.5,26.67,0,19.06,8.13,27.5,23.34,27.5,10.73,0,16.77-4.06,17.92-4.79l-2.29-5.31a31.27,31.27,0,0,1-15.11,3.54c-8.86,0-14.17-4.69-14.79-17.81h33.75v-3.23C204.21,509.1,196.81,502,183.89,502Zm-13.44,24c.62-12.71,5.73-17.29,13.75-17.29,6.77,0,11.56,3.85,11.77,17.29Z" transform="translate(-35.72 -3.18)"/><path class="cls-3" d="M226,511.08v-1.15c0-4.48-2.4-6.88-6.35-6.88a24.88,24.88,0,0,0-8.34,1.15l-.42,5.52,6.88.52v37.92l-7.5.62v6.36h24.38v-6.36l-8.13-.73V520c1.77-6.15,6.88-9.9,15-10H245v-8h-2.81A18.27,18.27,0,0,0,226,511.08Z" transform="translate(-35.72 -3.18)"/><polygon class="cls-3" points="275.78 485.39 275.78 479.04 249.84 479.04 249.84 485.39 258.69 486.12 240.46 541.34 239.94 541.34 221.5 486.01 230.04 485.39 230.04 479.04 203.27 479.04 203.27 485.39 211.6 486.01 234.94 551.96 244.32 551.96 267.24 486.12 275.78 485.39"/><path class="cls-3" d="M343.7,519.73c0-11.67-6-17.71-18.54-17.71-8.23,0-14.69,2.08-17.4,3.85a6,6,0,0,0-2.71,5.42,43.76,43.76,0,0,0,.62,6.67h6.15l.83-7.29a32.16,32.16,0,0,1,11.56-2c7.4,0,10.94,3.65,10.94,11v6.67a68.48,68.48,0,0,0-12.92-1.25c-13.13,0-19.38,6.15-19.38,15.84,0,8.54,6,15.21,15.94,15.21,7.4,0,13-3.13,16.36-8v.1c0,4.58,2.5,7.08,6.67,7.08a26.2,26.2,0,0,0,9.06-1.35v-5.52L343.7,548Zm-8.54,19.69c-1.67,5.31-6.46,10.21-14.79,10.21-5.63,0-8.86-3.85-8.86-9.17,0-5.83,3.65-9.58,12-9.58A58.31,58.31,0,0,1,335.15,532Z" transform="translate(-35.72 -3.18)"/><path class="cls-3" d="M371.83,511.08v-1.15c0-4.48-2.4-6.88-6.35-6.88a24.88,24.88,0,0,0-8.34,1.15l-.42,5.52,6.88.52v37.92l-7.5.62v6.36h24.38v-6.36l-8.13-.73V520c1.77-6.15,6.88-9.9,15-10h3.54v-8h-2.81A18.27,18.27,0,0,0,371.83,511.08Z" transform="translate(-35.72 -3.18)"/><path class="cls-3" d="M416.63,525.14c-5.83-1.35-12.81-1.77-12.81-8.23,0-4.79,3-8.33,10.42-8.33a28.82,28.82,0,0,1,10.52,1.88l.83,7.29h6.36a36.06,36.06,0,0,0,.73-7.08,5.92,5.92,0,0,0-2.92-5.31c-2.6-1.56-8.44-3.33-15.52-3.33-12.4,0-18.86,6.15-18.86,15,0,11.25,10,13.23,17.4,14.79,7.08,1.46,14.06,2.5,14.06,8.86,0,5.73-3.86,9-12.09,9a35.4,35.4,0,0,1-12.08-2.29l-.63-7.19h-6.25a53.3,53.3,0,0,0-.73,7.19,5.59,5.59,0,0,0,3,5.42c2.5,1.46,8.13,3.44,16.67,3.44,13.54,0,20.32-6.36,20.32-15.73C435.07,529.31,425.27,527.12,416.63,525.14Z" transform="translate(-35.72 -3.18)"/><path class="cls-3" d="M451,490.14a6,6,0,0,0,6-6,6,6,0,0,0-12.09,0A6,6,0,0,0,451,490.14Z" transform="translate(-35.72 -3.18)"/><polygon class="cls-3" points="420.98 499.87 406.81 499.87 406.39 506.75 412.23 507.27 412.23 544.46 405.77 545.09 405.77 551.96 427.44 551.96 427.44 545.09 420.98 544.46 420.98 499.87"/><path class="cls-3" d="M489.49,549.42c-5.1,0-7.81-2.71-7.81-7.4V510.35h13.54v-7.29H481.68V490.76l-6.77.42-2,11.88-7,1-.31,6.25h7.29v30.73c0,9.58,5.42,14.9,15.31,14.9a32,32,0,0,0,10.11-1.67l-1.67-5.83A31.71,31.71,0,0,1,489.49,549.42Z" transform="translate(-35.72 -3.18)"/><path class="cls-3" d="M535.33,503.06v6.36l7.92.73-12.5,34.28a19.72,19.72,0,0,0-.94,3.65h-.52a15.5,15.5,0,0,0-.83-3.65l-12.61-34.28,8-.73v-6.36H500.12v6.36l6.67.62,18.28,48.75h0l-3.69,9.8c-1,2.81-3.85,4.06-7.08,4.06a27.41,27.41,0,0,1-5.63-.62l-1.46,5.83a26,26,0,0,0,7.19,1.15c8.13,0,12-3.65,14.27-9.79L551,510l7-.62v-6.36Z" transform="translate(-35.72 -3.18)"/><line class="cls-4" x1="3.58" y1="596.82" x2="519.19" y2="596.81"/></svg>