<svg
  width="180"
  height="200"
  id="Layer_2" data-name="Layer 2" xmlns="http://www.w3.org/2000/svg" viewBox="0 0 256.69 294.66"><defs><style>.cls-1{fill:#fff;}.cls-2{fill:none;stroke:#fff;stroke-miterlimit:10;stroke-width:0.25px;}</style></defs><title>SquareNormalDarkBg</title><path class="cls-1" d="M265.15,185a1.61,1.61,0,0,1,1.45,2.3s-17.18,32.87-31.48,32.87H67.27c-14.3,0-31.48-32.87-31.48-32.87a1.61,1.61,0,0,1,1.45-2.3h65.83a24.06,24.06,0,0,1,24.06,24.06A24.06,24.06,0,0,1,151.19,185Z" transform="translate(-22.84 -2.82)"/><path class="cls-1" d="M271.45,169H224.52a1.6,1.6,0,0,1-1.6-1.6,1.39,1.39,0,0,1,.16-.7,80.21,80.21,0,1,0-143.81,0,1.66,1.66,0,0,1,.16.71,1.6,1.6,0,0,1-1.6,1.6H30.9a3.24,3.24,0,0,1-2.12-.8,3.33,3.33,0,0,1-1-1.52,128.34,128.34,0,1,1,246.72,0,3.41,3.41,0,0,1-1,1.59A3.34,3.34,0,0,1,271.45,169Z" transform="translate(-22.84 -2.82)"/><polygon class="cls-1" points="0.01 238.59 4.37 238.95 4.37 267.83 0.01 268.19 0.01 271.31 13.12 271.31 13.12 268.19 8.72 267.83 8.72 238.95 13.12 238.59 13.12 235.47 0.01 235.47 0.01 238.59"/><path class="cls-1" d="M63.25,256.72c0-5.94-2.77-8.71-8.4-8.71a10.13,10.13,0,0,0-7.68,3c-.31-1.64-1.38-2.51-3.33-2.51a12.23,12.23,0,0,0-4.1.56l-.2,2.71,3.38.26V270.7l-3.69.31v3.12H50.91V271l-3.69-.31V254.21c1-1.74,3.23-3,6.81-3,3.12,0,4.92,1.74,4.92,5.53v14.8c0,1.79,1.13,2.92,3.28,2.92a15.88,15.88,0,0,0,4.71-.61V271l-3.69-.26Z" transform="translate(-22.84 -2.82)"/><path class="cls-1" d="M78.82,271.32c-2.51,0-3.84-1.33-3.84-3.64V252.11h6.66v-3.58H75v-6l-3.33.2-1,5.84-3.43.51-.15,3.07h3.58v15.11c0,4.71,2.66,7.32,7.53,7.32a15.75,15.75,0,0,0,5-.82l-.82-2.87A15.58,15.58,0,0,1,78.82,271.32Z" transform="translate(-22.84 -2.82)"/><path class="cls-1" d="M95.67,248c-7.27,0-11.06,4.66-11.06,13.11,0,9.37,4,13.52,11.47,13.52a15.72,15.72,0,0,0,8.81-2.36l-1.13-2.61a15.37,15.37,0,0,1-7.43,1.74c-4.35,0-7-2.3-7.27-8.76h16.59v-1.59C105.65,251.5,102,248,95.67,248Zm-6.61,11.78c.31-6.25,2.82-8.5,6.76-8.5,3.33,0,5.68,1.89,5.79,8.5Z" transform="translate(-22.84 -2.82)"/><path class="cls-1" d="M116.35,252.47v-.56c0-2.2-1.18-3.38-3.12-3.38a12.23,12.23,0,0,0-4.1.56l-.2,2.71,3.38.26V270.7l-3.69.31v3.12h12V271l-4-.36V256.88c.87-3,3.38-4.86,7.37-4.92h1.74V248h-1.38A9,9,0,0,0,116.35,252.47Z" transform="translate(-22.84 -2.82)"/><polygon class="cls-1" points="135.56 238.59 135.56 235.47 122.81 235.47 122.81 238.59 127.16 238.95 118.2 266.09 117.94 266.09 108.88 238.9 113.08 238.59 113.08 235.47 99.92 235.47 99.92 238.59 104.01 238.9 115.48 271.31 120.09 271.31 131.36 238.95 135.56 238.59"/><path class="cls-1" d="M174.22,256.72c0-5.74-3-8.71-9.12-8.71a17.3,17.3,0,0,0-8.55,1.89,3,3,0,0,0-1.33,2.66,21.51,21.51,0,0,0,.31,3.28h3l.41-3.58a15.81,15.81,0,0,1,5.68-1c3.64,0,5.38,1.79,5.38,5.43V260a33.66,33.66,0,0,0-6.35-.61c-6.45,0-9.52,3-9.52,7.78,0,4.2,3,7.48,7.83,7.48a9.33,9.33,0,0,0,8-3.94v.05c0,2.25,1.23,3.48,3.28,3.48a12.88,12.88,0,0,0,4.46-.67v-2.71l-3.53-.26ZM170,266.4a7.18,7.18,0,0,1-7.27,5,4.15,4.15,0,0,1-4.35-4.51c0-2.87,1.79-4.71,5.89-4.71a28.66,28.66,0,0,1,5.74.56Z" transform="translate(-22.84 -2.82)"/><path class="cls-1" d="M188,252.47v-.56c0-2.2-1.18-3.38-3.12-3.38a12.23,12.23,0,0,0-4.1.56l-.2,2.71,3.38.26V270.7l-3.69.31v3.12h12V271l-4-.36V256.88c.87-3,3.38-4.86,7.37-4.92h1.74V248H196A9,9,0,0,0,188,252.47Z" transform="translate(-22.84 -2.82)"/><path class="cls-1" d="M210.07,259.38c-2.87-.67-6.3-.87-6.3-4,0-2.36,1.49-4.1,5.12-4.1a14.17,14.17,0,0,1,5.17.92l.41,3.58h3.12a17.73,17.73,0,0,0,.36-3.48,2.91,2.91,0,0,0-1.43-2.61,16.36,16.36,0,0,0-7.63-1.64c-6.09,0-9.27,3-9.27,7.37,0,5.53,4.92,6.5,8.55,7.27,3.48.72,6.91,1.23,6.91,4.35,0,2.82-1.89,4.4-5.94,4.4a17.4,17.4,0,0,1-5.94-1.13l-.31-3.53h-3.07a26.2,26.2,0,0,0-.36,3.53A2.75,2.75,0,0,0,201,273a17.09,17.09,0,0,0,8.19,1.69c6.66,0,10-3.12,10-7.73C219.13,261.43,214.32,260.36,210.07,259.38Z" transform="translate(-22.84 -2.82)"/><path class="cls-1" d="M226.95,242.18a2.94,2.94,0,0,0,3-3,3,3,0,0,0-5.94,0A2.94,2.94,0,0,0,226.95,242.18Z" transform="translate(-22.84 -2.82)"/><polygon class="cls-1" points="206.93 245.71 199.97 245.71 199.76 249.09 202.63 249.34 202.63 267.63 199.45 267.93 199.45 271.31 210.1 271.31 210.1 267.93 206.93 267.63 206.93 245.71"/><path class="cls-1" d="M245.88,271.32c-2.51,0-3.84-1.33-3.84-3.64V252.11h6.66v-3.58H242v-6l-3.33.2-1,5.84-3.43.51-.15,3.07h3.58v15.11c0,4.71,2.66,7.32,7.53,7.32a15.74,15.74,0,0,0,5-.82l-.82-2.87A15.58,15.58,0,0,1,245.88,271.32Z" transform="translate(-22.84 -2.82)"/><path class="cls-1" d="M268.41,248.53v3.12l3.89.36-6.14,16.85a9.69,9.69,0,0,0-.46,1.79h-.26a7.62,7.62,0,0,0-.41-1.79L258.84,252l3.94-.36v-3.12H251.11v3.12l3.28.31,9,24h0l-1.81,4.82a3.42,3.42,0,0,1-3.48,2,13.47,13.47,0,0,1-2.77-.31l-.72,2.87a12.77,12.77,0,0,0,3.53.56c4,0,5.89-1.79,7-4.81l11-29.09,3.43-.31v-3.12Z" transform="translate(-22.84 -2.82)"/><line class="cls-2" x1="0.59" y1="294.53" x2="256.68" y2="294.53"/></svg>
