<svg id="Layer_2" data-name="Layer 2" xmlns="http://www.w3.org/2000/svg" viewBox="0 0 517.01 593.35"><defs><style>.cls-1{fill:#fff;}.cls-2{fill:none;stroke:#fff;stroke-miterlimit:10;stroke-width:0.25px;}</style></defs><title>SquareNormalDarkBgBig</title><path class="cls-1" d="M526,373.47a3.23,3.23,0,0,1,2.91,4.64s-34.6,66.2-63.41,66.2H127.45C98.64,444.3,64,378.1,64,378.1A3.23,3.23,0,0,1,67,373.47H199.55A48.47,48.47,0,0,1,248,421.94a48.47,48.47,0,0,1,48.47-48.47Z" transform="translate(-37.97 -6.48)"/><path class="cls-1" d="M538.7,341.16H444.18a3.23,3.23,0,0,1-3.23-3.23,2.79,2.79,0,0,1,.33-1.41A160.53,160.53,0,0,0,458,265c0-89.08-72.47-161.56-161.56-161.56S134.9,175.89,134.9,265a160.53,160.53,0,0,0,16.73,71.53,3.35,3.35,0,0,1,.32,1.42,3.23,3.23,0,0,1-3.23,3.23H54.21a6.52,6.52,0,0,1-4.27-1.61A6.72,6.72,0,0,1,48,336.49,258.53,258.53,0,0,1,38,265C38,122.21,153.7,6.48,296.46,6.48S555,122.21,555,265a258.53,258.53,0,0,1-10,71.45,6.86,6.86,0,0,1-2,3.2A6.73,6.73,0,0,1,538.7,341.16Z" transform="translate(-37.97 -6.48)"/><polygon class="cls-1" points="0.03 480.55 8.79 481.27 8.79 539.44 0.03 540.16 0.03 546.46 26.43 546.46 26.43 540.16 17.56 539.44 17.56 481.27 26.43 480.55 26.43 474.26 0.03 474.26 0.03 480.55"/><path class="cls-1" d="M119.37,517.87c0-12-5.57-17.53-16.91-17.53-6.4,0-12,2.17-15.47,6.09-.62-3.3-2.79-5.05-6.71-5.05A24.63,24.63,0,0,0,72,502.5L71.62,508l6.81.52V546l-7.43.62v6.29H94.51v-6.29L87.09,546V512.81c2.06-3.51,6.5-6,13.72-6,6.29,0,9.9,3.51,9.9,11.14v29.81c0,3.61,2.27,5.88,6.6,5.88a32,32,0,0,0,9.49-1.24v-5.78l-7.43-.52Z" transform="translate(-37.97 -6.48)"/><path class="cls-1" d="M150.73,547.26c-5.05,0-7.74-2.68-7.74-7.32V508.58H156.4v-7.22H143V489.19l-6.7.41-2,11.76-6.91,1-.31,6.19h7.22V539c0,9.49,5.36,14.75,15.16,14.75a31.72,31.72,0,0,0,10-1.65l-1.65-5.78A31.39,31.39,0,0,1,150.73,547.26Z" transform="translate(-37.97 -6.48)"/><path class="cls-1" d="M184.65,500.33c-14.65,0-22.28,9.39-22.28,26.4,0,18.87,8,27.23,23.1,27.23,10.62,0,16.61-4,17.74-4.74L201,544a31,31,0,0,1-15,3.51c-8.77,0-14-4.64-14.65-17.64h33.42v-3.2C204.77,507.35,197.44,500.33,184.65,500.33Zm-13.3,23.72C172,511.47,177,506.93,185,506.93c6.7,0,11.45,3.82,11.66,17.12Z" transform="translate(-37.97 -6.48)"/><path class="cls-1" d="M226.31,509.31v-1.13c0-4.44-2.37-6.81-6.29-6.81a24.63,24.63,0,0,0-8.25,1.13l-.41,5.47,6.81.52V546l-7.43.62v6.29h24.14v-6.29l-8-.72V518.18c1.75-6.09,6.81-9.8,14.85-9.9h3.51v-7.94H242.4A18.09,18.09,0,0,0,226.31,509.31Z" transform="translate(-37.97 -6.48)"/><polygon class="cls-1" points="273.03 480.55 273.03 474.26 247.35 474.26 247.35 480.55 256.11 481.27 238.06 535.94 237.55 535.94 219.29 481.17 227.75 480.55 227.75 474.26 201.24 474.26 201.24 480.55 209.49 481.17 232.6 546.46 241.88 546.46 264.57 481.27 273.03 480.55"/><path class="cls-1" d="M342.87,517.87c0-11.55-6-17.53-18.36-17.53-8.15,0-14.54,2.06-17.22,3.82a5.93,5.93,0,0,0-2.68,5.36,43.33,43.33,0,0,0,.62,6.6h6.09l.82-7.22a31.84,31.84,0,0,1,11.45-2c7.32,0,10.83,3.61,10.83,10.93v6.6a67.79,67.79,0,0,0-12.79-1.24c-13,0-19.18,6.09-19.18,15.68,0,8.46,6,15.06,15.78,15.06,7.32,0,12.89-3.09,16.19-7.94v.1c0,4.54,2.48,7,6.6,7a25.94,25.94,0,0,0,9-1.34v-5.47l-7.12-.52Zm-8.46,19.49c-1.65,5.26-6.39,10.11-14.65,10.11-5.57,0-8.77-3.82-8.77-9.08,0-5.78,3.61-9.49,11.86-9.49A57.72,57.72,0,0,1,334.41,530Z" transform="translate(-37.97 -6.48)"/><path class="cls-1" d="M370.72,509.31v-1.13c0-4.44-2.37-6.81-6.29-6.81a24.63,24.63,0,0,0-8.25,1.13l-.41,5.47,6.81.52V546l-7.43.62v6.29h24.14v-6.29l-8-.72V518.18c1.75-6.09,6.81-9.8,14.85-9.9h3.51v-7.94h-2.78A18.09,18.09,0,0,0,370.72,509.31Z" transform="translate(-37.97 -6.48)"/><path class="cls-1" d="M415.07,523.23c-5.78-1.34-12.69-1.75-12.69-8.15,0-4.74,3-8.25,10.31-8.25a28.53,28.53,0,0,1,10.42,1.86l.82,7.22h6.29a35.7,35.7,0,0,0,.72-7,5.86,5.86,0,0,0-2.89-5.26c-2.58-1.55-8.35-3.3-15.37-3.3-12.27,0-18.67,6.09-18.67,14.85,0,11.14,9.9,13.1,17.22,14.65,7,1.44,13.92,2.48,13.92,8.77,0,5.67-3.82,8.87-12,8.87a35.05,35.05,0,0,1-12-2.27l-.62-7.12h-6.19a52.76,52.76,0,0,0-.72,7.12,5.53,5.53,0,0,0,3,5.36c2.48,1.44,8,3.4,16.5,3.4,13.41,0,20.11-6.29,20.11-15.57C433.32,527.36,423.63,525.19,415.07,523.23Z" transform="translate(-37.97 -6.48)"/><path class="cls-1" d="M449.07,488.58a5.92,5.92,0,0,0,6-6,6,6,0,0,0-12,0A5.92,5.92,0,0,0,449.07,488.58Z" transform="translate(-37.97 -6.48)"/><polygon class="cls-1" points="416.78 494.89 402.75 494.89 402.34 501.69 408.12 502.21 408.12 539.03 401.72 539.65 401.72 546.46 423.18 546.46 423.18 539.65 416.78 539.03 416.78 494.89"/><path class="cls-1" d="M487.21,547.26c-5.05,0-7.74-2.68-7.74-7.32V508.58h13.41v-7.22H479.47V489.19l-6.7.41-2,11.76-6.91,1-.31,6.19h7.22V539c0,9.49,5.36,14.75,15.16,14.75a31.71,31.71,0,0,0,10-1.65l-1.65-5.78A31.39,31.39,0,0,1,487.21,547.26Z" transform="translate(-37.97 -6.48)"/><path class="cls-1" d="M532.59,501.36v6.29l7.84.72-12.38,33.93a19.52,19.52,0,0,0-.93,3.61h-.52a15.34,15.34,0,0,0-.83-3.61L513.3,508.38l7.94-.72v-6.29H497.73v6.29l6.6.62,18.09,48.27h0l-3.65,9.7c-1,2.78-3.82,4-7,4a27.14,27.14,0,0,1-5.57-.62l-1.44,5.78a25.73,25.73,0,0,0,7.12,1.13c8,0,11.86-3.61,14.13-9.7l22.07-58.58,6.91-.62v-6.29Z" transform="translate(-37.97 -6.48)"/><line class="cls-2" x1="1.2" y1="593.23" x2="516.99" y2="593.23"/></svg>