<svg id="Layer_1" data-name="Layer 1" xmlns="http://www.w3.org/2000/svg" xmlns:xlink="http://www.w3.org/1999/xlink" viewBox="0 0 259.28 296.69"><defs><style>.cls-1{fill:url(#linear-gradient);}.cls-2{fill:url(#linear-gradient-2);}.cls-3{fill:#ff671b;}.cls-4{fill:none;stroke:#a6a8ab;stroke-miterlimit:10;stroke-width:0.75px;}</style><linearGradient id="linear-gradient" x1="3338.09" y1="251.06" x2="3217.02" y2="129.99" gradientTransform="matrix(-1, 0, 0, 1, 3428.93, 0)" gradientUnits="userSpaceOnUse"><stop offset="0.3" stop-color="#f16528"/><stop offset="0.47" stop-color="#f26b27"/><stop offset="0.7" stop-color="#f47b23"/><stop offset="0.95" stop-color="#f7961d"/><stop offset="1" stop-color="#f89c1c"/></linearGradient><linearGradient id="linear-gradient-2" x1="65.27" y1="205.76" x2="237.45" y2="33.58" gradientUnits="userSpaceOnUse"><stop offset="0.1" stop-color="#006880"/><stop offset="0.31" stop-color="#006d86"/><stop offset="0.58" stop-color="#007a96"/><stop offset="0.88" stop-color="#0090b1"/><stop offset="1" stop-color="#009abe"/></linearGradient></defs><title>SquareNormal</title><path class="cls-1" d="M266.48,185.23a1.62,1.62,0,0,1,1.46,2.32s-17.35,33.2-31.8,33.2H66.6c-14.45,0-31.8-33.2-31.8-33.2a1.62,1.62,0,0,1,1.46-2.32h66.5a24.31,24.31,0,0,1,24.31,24.31,24.31,24.31,0,0,1,24.31-24.31Z" transform="translate(-21.72 -1.18)"/><path class="cls-2" d="M272.84,169h-47.4a1.62,1.62,0,0,1-1.62-1.62,1.4,1.4,0,0,1,.16-.71,81,81,0,1,0-145.26,0,1.68,1.68,0,0,1,.16.71A1.62,1.62,0,0,1,77.27,169H29.87a3.27,3.27,0,0,1-2.14-.81,3.37,3.37,0,0,1-1-1.53,129.63,129.63,0,1,1,249.21,0,3.44,3.44,0,0,1-1,1.6A3.38,3.38,0,0,1,272.84,169Z" transform="translate(-21.72 -1.18)"/><polygon class="cls-3" points="0.01 240.99 4.41 241.35 4.41 270.53 0.01 270.89 0.01 274.05 13.26 274.05 13.26 270.89 8.81 270.53 8.81 241.35 13.26 240.99 13.26 237.84 0.01 237.84 0.01 240.99"/><path class="cls-3" d="M62.55,257.64c0-6-2.79-8.79-8.48-8.79a10.23,10.23,0,0,0-7.76,3.05c-.31-1.66-1.4-2.53-3.36-2.53a12.35,12.35,0,0,0-4.14.57l-.21,2.74,3.41.26v18.83l-3.72.31v3.16H50.08v-3.16l-3.72-.31V255.11c1-1.76,3.26-3,6.88-3,3.16,0,5,1.76,5,5.59v14.95c0,1.81,1.14,2.95,3.31,2.95a16,16,0,0,0,4.76-.62v-2.9l-3.72-.26Z" transform="translate(-21.72 -1.18)"/><path class="cls-3" d="M78.27,272.39c-2.53,0-3.88-1.34-3.88-3.67V253h6.72v-3.62H74.39v-6.1l-3.36.21-1,5.9-3.47.52-.15,3.1H70v15.26c0,4.76,2.69,7.4,7.6,7.4a15.91,15.91,0,0,0,5-.83l-.83-2.9A15.74,15.74,0,0,1,78.27,272.39Z" transform="translate(-21.72 -1.18)"/><path class="cls-3" d="M95.29,248.85c-7.34,0-11.17,4.71-11.17,13.24,0,9.47,4,13.66,11.59,13.66a15.88,15.88,0,0,0,8.9-2.38l-1.14-2.64a15.53,15.53,0,0,1-7.5,1.76c-4.4,0-7-2.33-7.35-8.84h16.76V262C105.37,252.37,101.7,248.85,95.29,248.85Zm-6.67,11.9c.31-6.31,2.84-8.59,6.83-8.59,3.36,0,5.74,1.91,5.84,8.59Z" transform="translate(-21.72 -1.18)"/><path class="cls-3" d="M116.18,253.35v-.57c0-2.22-1.19-3.41-3.16-3.41a12.35,12.35,0,0,0-4.14.57l-.21,2.74,3.41.26v18.83l-3.72.31v3.16h12.1v-3.16l-4-.36V257.8c.88-3.05,3.41-4.91,7.45-5h1.76v-4h-1.4A9.07,9.07,0,0,0,116.18,253.35Z" transform="translate(-21.72 -1.18)"/><polygon class="cls-3" points="136.92 240.99 136.92 237.84 124.04 237.84 124.04 240.99 128.44 241.35 119.39 268.77 119.13 268.77 109.97 241.3 114.22 240.99 114.22 237.84 100.92 237.84 100.92 240.99 105.06 241.3 116.65 274.05 121.3 274.05 132.68 241.35 136.92 240.99"/><path class="cls-3" d="M174.63,257.64c0-5.79-3-8.79-9.21-8.79a17.47,17.47,0,0,0-8.64,1.91,3,3,0,0,0-1.34,2.69,21.73,21.73,0,0,0,.31,3.31h3.05l.41-3.62a16,16,0,0,1,5.74-1c3.67,0,5.43,1.81,5.43,5.48V261a34,34,0,0,0-6.41-.62c-6.52,0-9.62,3.05-9.62,7.86,0,4.24,3,7.55,7.91,7.55a9.43,9.43,0,0,0,8.12-4v.05c0,2.28,1.24,3.52,3.31,3.52a13,13,0,0,0,4.5-.67v-2.74l-3.57-.26Zm-4.24,9.78a7.26,7.26,0,0,1-7.35,5.07,4.2,4.2,0,0,1-4.4-4.55c0-2.9,1.81-4.76,5.95-4.76a29,29,0,0,1,5.79.57Z" transform="translate(-21.72 -1.18)"/><path class="cls-3" d="M188.6,253.35v-.57c0-2.22-1.19-3.41-3.16-3.41a12.35,12.35,0,0,0-4.14.57l-.21,2.74,3.41.26v18.83l-3.72.31v3.16h12.1v-3.16l-4-.36V257.8c.88-3.05,3.41-4.91,7.45-5h1.76v-4h-1.4A9.07,9.07,0,0,0,188.6,253.35Z" transform="translate(-21.72 -1.18)"/><path class="cls-3" d="M210.84,260.33c-2.9-.67-6.36-.88-6.36-4.09,0-2.38,1.5-4.14,5.17-4.14a14.31,14.31,0,0,1,5.22.93l.41,3.62h3.16a17.9,17.9,0,0,0,.36-3.52,2.94,2.94,0,0,0-1.45-2.64,16.53,16.53,0,0,0-7.71-1.66c-6.16,0-9.36,3.05-9.36,7.45,0,5.59,5,6.57,8.64,7.35,3.52.72,7,1.24,7,4.4,0,2.84-1.91,4.45-6,4.45a17.58,17.58,0,0,1-6-1.14l-.31-3.57h-3.1a26.46,26.46,0,0,0-.36,3.57,2.78,2.78,0,0,0,1.5,2.69,17.27,17.27,0,0,0,8.28,1.71c6.72,0,10.09-3.16,10.09-7.81C220,262.4,215.13,261.32,210.84,260.33Z" transform="translate(-21.72 -1.18)"/><path class="cls-3" d="M227.89,243a3,3,0,0,0,3-3,3,3,0,0,0-6,0A3,3,0,0,0,227.89,243Z" transform="translate(-21.72 -1.18)"/><polygon class="cls-3" points="209.01 248.18 201.98 248.18 201.77 251.6 204.67 251.86 204.67 270.32 201.46 270.63 201.46 274.05 212.22 274.05 212.22 270.63 209.01 270.32 209.01 248.18"/><path class="cls-3" d="M247,272.39c-2.53,0-3.88-1.34-3.88-3.67V253h6.72v-3.62h-6.72v-6.1l-3.36.21-1,5.9-3.47.52-.16,3.1h3.62v15.26c0,4.76,2.69,7.4,7.6,7.4a15.9,15.9,0,0,0,5-.83l-.83-2.9A15.74,15.74,0,0,1,247,272.39Z" transform="translate(-21.72 -1.18)"/><path class="cls-3" d="M269.78,249.37v3.16l3.93.36-6.21,17a9.79,9.79,0,0,0-.47,1.81h-.26a7.69,7.69,0,0,0-.41-1.81l-6.26-17,4-.36v-3.16H252.29v3.16l3.31.31L264.68,277h0l-1.83,4.86a3.45,3.45,0,0,1-3.52,2,13.61,13.61,0,0,1-2.79-.31l-.72,2.9a12.9,12.9,0,0,0,3.57.57c4,0,5.95-1.81,7.09-4.86l11.07-29.38,3.47-.31v-3.16Z" transform="translate(-21.72 -1.18)"/><line class="cls-4" x1="1.78" y1="296.32" x2="257.78" y2="296.32"/></svg>