<svg
   width="300"
   height="54"
   viewBox="0 0 631.83 115.46"
   xmlns="http://www.w3.org/2000/svg"
   xmlns:xlink="http://www.w3.org/1999/xlink">
   <linearGradient id="a" gradientTransform="matrix(-1 0 0 1 4495.93 0)" gradientUnits="userSpaceOnUse" x1="4459.07" x2="4395.68" y1="132.16" y2="68.77"><stop offset=".3" stop-color="#f16528"/><stop offset=".47" stop-color="#f26b27"/><stop offset=".7" stop-color="#f47b23"/><stop offset=".95" stop-color="#f7961d"/><stop offset="1" stop-color="#f89c1c"/></linearGradient><linearGradient id="b" gradientUnits="userSpaceOnUse" x1="23.47" x2="113.62" y1="108.44" y2="18.29"><stop offset=".1" stop-color="#006880"/><stop offset=".31" stop-color="#006d86"/><stop offset=".58" stop-color="#007a96"/><stop offset=".88" stop-color="#0090b1"/><stop offset="1" stop-color="#009abe"/></linearGradient><path d="m128.82 97.69a.85.85 0 0 1 .77 1.22s-9.08 17.38-16.65 17.38h-88.77c-7.57 0-16.65-17.38-16.65-17.38a.85.85 0 0 1 .77-1.22h34.81a12.73 12.73 0 0 1 12.73 12.73 12.73 12.73 0 0 1 12.72-12.73z" fill="url(#a)" transform="translate(-.67 -1.33)"/><path d="m132.15 89.21h-24.82a.85.85 0 0 1 -.85-.85.73.73 0 0 1 .09-.37 42.42 42.42 0 1 0 -76.05 0 .88.88 0 0 1 .09.37.85.85 0 0 1 -.85.85h-24.82a1.71 1.71 0 0 1 -1.12-.42 1.76 1.76 0 0 1 -.51-.8 67.87 67.87 0 1 1 130.48 0 1.8 1.8 0 0 1 -.54.84 1.77 1.77 0 0 1 -1.1.38z" fill="url(#b)" transform="translate(-.67 -1.33)"/><g fill="#ff671b"><path d="m154.65 25.05 8.49.58v56.94l-8.49.58v4.73h23.45v-4.73l-8.49-.58v-56.94l8.49-.58v-4.73h-23.45z"/><path d="m229.73 56.39c0-11.2-5.21-16.41-15.83-16.41-6.18 0-11.68 2.12-15.06 6.08-.1-3.38-1.93-5.12-5.31-5.12a30.89 30.89 0 0 0 -7.24.77l-.37 4.29 6.56.48v37.42l-7.24.58v4.73h20.85v-4.73l-7.24-.58v-32.43c2-3.76 6.66-6.56 14.19-6.56 6.66 0 10.42 3.67 10.42 11.58v28.51c0 3 1.74 4.83 5.21 4.83a41.59 41.59 0 0 0 8.4-.87v-4.48l-7.34-.39z" transform="translate(-.67 -1.33)"/><path d="m258.69 85.06c-5 0-7.72-2.8-7.72-7.62v-31.08h12.74v-5.36h-12.71v-11.44l-4.92.39-1.48 11.05-6.56.77-.1 4.63h6.66v30.5c0 8.35 4.73 13.1 13.4 13.1a28.27 28.27 0 0 0 8.4-1.35l-1.25-4.44a27.19 27.19 0 0 1 -6.46.85z" transform="translate(-.67 -1.33)"/><path d="m290.15 40c-13.22 0-20.46 8.3-20.46 24.9 0 17.85 7.34 25.29 21.14 25.29 9.75 0 15.44-3.86 16.12-4.25l-1.74-4a29.61 29.61 0 0 1 -14.09 3.28c-9.07 0-14.38-5-15-18.24h32.33v-2.38c.04-18.24-7.01-24.6-18.3-24.6zm-14 22.68c.58-12.85 5.85-17.68 14.19-17.68 6.95 0 12 4 12.16 17.66z" transform="translate(-.67 -1.33)"/><path d="m327.84 48.67v-2.41c0-3.47-1.83-5.31-4.92-5.31a30.89 30.89 0 0 0 -7.24.77l-.39 4.28 6.56.48v37.42l-7.24.58v4.73h21.62v-4.73l-8-.58v-28.38c1.83-5.69 6.76-9.46 14.77-9.46h3v-6.06h-2.51c-6.49 0-12.37 2.88-15.65 8.67z" transform="translate(-.67 -1.33)"/><path d="m406.6 20.32h-23.16v4.73l8.68.58-18.33 54.33h-.49l-18.14-54.33 8.2-.58v-4.73h-23.55v4.73l8.11.58 21.81 62.25h6.95l21.62-62.25 8.3-.58z"/><path d="m436.42 56.39c0-11-5.41-16.41-16.6-16.41-7.62 0-13.71 2-16 3.47a4.79 4.79 0 0 0 -2.12 4.44 56.84 56.84 0 0 0 .48 6.08h4.44l.68-6.76a31.06 31.06 0 0 1 12.04-2.21c7.14 0 10.91 3.67 10.91 11.39v6.27a62.59 62.59 0 0 0 -12.93-1.26c-12.07 0-17.86 5.69-17.86 14.48 0 8.11 5.5 14.28 14.77 14.28 7.24 0 12.84-3.19 16-8v1.74c0 3.47 1.83 5.4 5.21 5.4a36.2 36.2 0 0 0 7.91-.87v-4.24l-6.95-.48zm-6.18 18.72c-1.74 5.12-6.76 10.13-15.15 10.13-6 0-9.27-4.05-9.27-9.65 0-5.89 3.76-9.75 12.26-9.75a65.76 65.76 0 0 1 12.17 1.16z" transform="translate(-.67 -1.33)"/><path d="m461.71 48.67v-2.41c0-3.47-1.83-5.31-4.92-5.31a30.89 30.89 0 0 0 -7.24.77l-.39 4.28 6.56.48v37.42l-7.24.58v4.73h21.62v-4.73l-8-.58v-28.38c1.83-5.69 6.76-9.46 14.77-9.46h3v-6.06h-2.51c-6.48 0-12.36 2.88-15.65 8.67z" transform="translate(-.67 -1.33)"/><path d="m502.83 61.8c-5.31-1.26-12.16-1.93-12.16-8.2 0-4.92 3.19-8.69 10.71-8.69a30 30 0 0 1 10.91 2l.68 6.95h4.54a45.91 45.91 0 0 0 .48-6.56 4.56 4.56 0 0 0 -2.22-4.25c-2.22-1.35-7.82-3.09-14.38-3.09-11 0-16.79 5.41-16.79 13.7 0 10.13 9.46 11.78 16 13.22 6.85 1.35 13.61 2.61 13.61 9.07 0 5.79-4.05 9.27-12.26 9.27a32.93 32.93 0 0 1 -12.35-2.51l-.48-6.85h-4.44a42.88 42.88 0 0 0 -.68 6.56 4.43 4.43 0 0 0 2.41 4.44c2.12 1.26 7.53 3.28 15.54 3.28 12.06 0 18.24-5.69 18.24-14.38.01-10.2-9.19-12.13-17.36-13.96z" transform="translate(-.67 -1.33)"/><path d="m534.84 28.11a4.63 4.63 0 0 0 4.63-4.63 4.7 4.7 0 0 0 -4.63-4.63 4.63 4.63 0 0 0 -4.63 4.63 4.57 4.57 0 0 0 4.63 4.63z" transform="translate(-.67 -1.33)"/><path d="m538.61 39.62h-11.68l-.29 5.02 5.6.48v37.26l-6.37.48v5.02h19.02v-5.02l-6.28-.48z"/><path d="m569.09 85.06c-5 0-7.72-2.8-7.72-7.62v-31.08h12.74v-5.36h-12.74v-11.44l-4.92.39-1.45 11.05-6.56.77-.1 4.63h6.66v30.5c0 8.4 4.73 13.13 13.42 13.13a28.28 28.28 0 0 0 8.4-1.35l-1.26-4.44a27.18 27.18 0 0 1 -6.47.82z" transform="translate(-.67 -1.33)"/><path d="m612.33 41v4.73l7.43.58-12.76 34.98s-.58 1.64-.87 2.8h-.39a21.08 21.08 0 0 0 -.77-2.8l-12.84-35 7.53-.58v-4.71h-20.92v4.73l6.76.48 17.19 45.79-4.26 11.35c-1 2.7-3.67 4.05-6.95 4.05a25 25 0 0 1 -4.54-.48l-1.16 4.44a22.8 22.8 0 0 0 5.79.87c6.85 0 10.33-3.19 12.35-8.49l5.31-13.9 16.21-43.53 7-.58v-4.73z" transform="translate(-.67 -1.33)"/></g><path d="m154.67 114.96h407.23" fill="none" stroke="#a6a8ab" stroke-linecap="round" stroke-miterlimit="10"/></svg>
