<svg id="Layer_1" data-name="Layer 1" xmlns="http://www.w3.org/2000/svg" xmlns:xlink="http://www.w3.org/1999/xlink" viewBox="0 0 3063.58 557.92"><defs><style>.cls-1{fill:url(#linear-gradient);}.cls-2{fill:url(#linear-gradient-2);}.cls-3{fill:#ff671b;}.cls-4{fill:none;stroke:#a6a8ab;stroke-linecap:round;stroke-miterlimit:10;}</style><linearGradient id="linear-gradient" x1="4991.8" y1="638.37" x2="4684.43" y2="331" gradientTransform="matrix(-1, 0, 0, 1, 5172.43, 0)" gradientUnits="userSpaceOnUse"><stop offset="0.3" stop-color="#f16528"/><stop offset="0.47" stop-color="#f26b27"/><stop offset="0.7" stop-color="#f47b23"/><stop offset="0.95" stop-color="#f7961d"/><stop offset="1" stop-color="#f89c1c"/></linearGradient><linearGradient id="linear-gradient-2" x1="115.71" y1="523.37" x2="552.84" y2="86.24" gradientUnits="userSpaceOnUse"><stop offset="0.1" stop-color="#006880"/><stop offset="0.31" stop-color="#006d86"/><stop offset="0.58" stop-color="#007a96"/><stop offset="0.88" stop-color="#0090b1"/><stop offset="1" stop-color="#009abe"/></linearGradient></defs><title>WideNormalBig</title><path class="cls-1" d="M626.54,471.24a4.12,4.12,0,0,1,3.71,5.9s-44,84.28-80.73,84.28H119.1c-36.68,0-80.73-84.28-80.73-84.28a4.12,4.12,0,0,1,3.71-5.9H210.9a61.71,61.71,0,0,1,61.71,61.71,61.71,61.71,0,0,1,61.71-61.71Z" transform="translate(-5.17 -4)"/><path class="cls-2" d="M642.7,430.1H522.36a4.11,4.11,0,0,1-4.11-4.11,3.56,3.56,0,0,1,.42-1.8A204.38,204.38,0,0,0,540,333.1c0-113.42-92.27-205.69-205.69-205.69S128.59,219.68,128.59,333.1a204.38,204.38,0,0,0,21.3,91.07,4.27,4.27,0,0,1,.41,1.81,4.11,4.11,0,0,1-4.11,4.11H25.86a8.3,8.3,0,0,1-5.43-2A8.55,8.55,0,0,1,18,424.16,329.15,329.15,0,0,1,5.17,333.1C5.17,151.34,152.52,4,334.28,4S663.38,151.34,663.38,333.1a329.15,329.15,0,0,1-12.76,91,8.74,8.74,0,0,1-2.61,4.07A8.57,8.57,0,0,1,642.7,430.1Z" transform="translate(-5.17 -4)"/><polygon class="cls-3" points="749.86 121.45 791.04 124.25 791.04 400.36 749.86 403.17 749.86 426.1 863.58 426.1 863.58 403.17 822.4 400.36 822.4 124.25 863.58 121.45 863.58 98.51 749.86 98.51 749.86 121.45"/><path class="cls-3" d="M1115.84,271c0-54.29-25.27-79.56-76.75-79.56-30,0-56.63,10.3-73,29.48-.47-16.38-9.36-24.8-25.74-24.8-21.06,0-35.1,3.74-35.1,3.74l-1.87,20.59,31.82,2.34V404.36l-35.1,2.81V430.1h101.09V407.17l-35.1-2.81V247.12c9.83-18.25,32.29-31.82,68.79-31.82,32.29,0,50.54,17.78,50.54,56.16V409.51c0,14.51,8.42,23.4,25.27,23.4a201.68,201.68,0,0,0,40.71-4.21V407.17l-35.57-1.87Z" transform="translate(-5.17 -4)"/><path class="cls-3" d="M1256.25,410c-24.34,0-37.44-13.57-37.44-37V222.31h61.77V196.11h-61.77V140.88l-23.87,1.87-7,53.35-31.82,3.74-.47,22.46h32.29V370.2c0,40.71,22.93,63.64,65.05,63.64a137.08,137.08,0,0,0,40.71-6.55l-6.08-21.53A131.85,131.85,0,0,1,1256.25,410Z" transform="translate(-5.17 -4)"/><path class="cls-3" d="M1408.77,191.43c-64.11,0-99.21,40.25-99.21,120.74,0,86.57,35.57,122.61,102.49,122.61,47.27,0,74.88-18.72,78.15-20.59L1481.77,395s-26.67,15.91-68.32,15.91c-44,0-69.73-24.33-72.54-88.45h156.77v-11.7C1497.68,222.31,1463.52,191.43,1408.77,191.43Zm-67.86,110c2.81-62.24,28.55-85.64,68.79-85.64,33.7,0,58,19.19,59,85.64Z" transform="translate(-5.17 -4)"/><path class="cls-3" d="M1591.52,233.54v-11.7c0-16.85-8.89-25.74-23.87-25.74-21.06,0-35.1,3.74-35.1,3.74l-1.87,20.59,31.82,2.34V404.36l-35.1,2.81V430.1h104.83V407.17l-38.84-2.81V266.77c8.89-27.61,32.76-45.86,71.6-45.86h14.51V191.43h-12.17C1636,191.43,1607.43,205.47,1591.52,233.54Z" transform="translate(-5.17 -4)"/><polygon class="cls-3" points="1971.51 98.51 1859.19 98.51 1859.19 121.45 1901.31 124.25 1812.4 387.73 1810.06 387.73 1722.07 124.25 1761.85 121.45 1761.85 98.51 1647.66 98.51 1647.66 121.45 1686.97 124.25 1792.74 426.1 1826.43 426.1 1931.26 124.25 1971.51 121.45 1971.51 98.51"/><path class="cls-3" d="M2118,271c0-53.35-26.21-79.56-80.49-79.56-37,0-66.45,9.83-77.69,16.85-8,5.62-10.29,12.17-10.29,21.53a275.61,275.61,0,0,0,2.34,29.48h21.53l3.27-32.76c10.77-5.15,33.23-10.76,58.5-10.76,34.63,0,52.88,17.78,52.88,55.22V301.4c-12.64-2.81-35.1-6.09-62.71-6.09-58.5,0-86.58,27.61-86.58,70.2,0,39.31,26.68,69.26,71.6,69.26,35.1,0,62.24-15.44,77.69-38.84v8.43c0,16.85,8.89,26.21,25.27,26.21a175.52,175.52,0,0,0,38.37-4.21V405.76L2118,403.42Zm-30,90.79c-8.43,24.8-32.76,49.14-73.47,49.14-29,0-44.93-19.65-44.93-46.8,0-28.55,18.25-47.26,59.43-47.26a318.83,318.83,0,0,1,59,5.61Z" transform="translate(-5.17 -4)"/><path class="cls-3" d="M2240.64,233.54v-11.7c0-16.85-8.89-25.74-23.87-25.74-21.06,0-35.1,3.74-35.1,3.74l-1.87,20.59,31.82,2.34V404.36l-35.1,2.81V430.1h104.83V407.17l-38.84-2.81V266.77c8.89-27.61,32.76-45.86,71.6-45.86h14.51V191.43h-12.17C2285.1,191.43,2256.55,205.47,2240.64,233.54Z" transform="translate(-5.17 -4)"/><path class="cls-3" d="M2440,297.19c-25.74-6.09-59-9.36-59-39.78,0-23.87,15.44-42.12,51.95-42.12,21.53,0,42.12,5.15,52.88,9.83l3.27,33.69h22c.93-2.34,2.34-22,2.34-31.82,0-8.43-2.34-15-10.77-20.59-10.77-6.55-37.9-15-69.73-15-53.35,0-81.43,26.21-81.43,66.45,0,49.14,45.86,57.1,77.69,64.11,33.23,6.55,66,12.63,66,44,0,28.08-19.66,44.92-59.43,44.92-28.08,0-52.88-8.89-59.9-12.17l-2.34-33.22H2352c-.94,2.81-3.28,22.46-3.28,31.82s2.34,16.38,11.7,21.53c10.3,6.09,36.5,15.91,75.35,15.91,58.5,0,88.45-27.61,88.45-69.73C2524.24,315.44,2479.78,306.08,2440,297.19Z" transform="translate(-5.17 -4)"/><path class="cls-3" d="M2595.24,133.87a22.47,22.47,0,0,0,22.46-22.46,22.78,22.78,0,0,0-22.46-22.46,22.47,22.47,0,0,0-22.46,22.46A22.18,22.18,0,0,0,2595.24,133.87Z" transform="translate(-5.17 -4)"/><polygon class="cls-3" points="2611.6 192.11 2554.97 192.11 2553.56 216.44 2580.71 218.78 2580.71 399.42 2549.82 401.76 2549.82 426.1 2642.02 426.1 2642.02 401.76 2611.6 399.42 2611.6 192.11"/><path class="cls-3" d="M2761.28,410c-24.34,0-37.44-13.57-37.44-37V222.31h61.77V196.11h-61.77V140.88L2700,142.76l-7,53.35-31.82,3.74-.47,22.46H2693V370.2c0,40.71,22.93,63.64,65,63.64a137.12,137.12,0,0,0,40.72-6.55l-6.09-21.53A131.79,131.79,0,0,1,2761.28,410Z" transform="translate(-5.17 -4)"/><path class="cls-3" d="M2970.94,196.11V219l36,2.81L2945.2,391.72s-2.81,8-4.21,13.57h-1.87a102.22,102.22,0,0,0-3.75-13.57l-62.24-169.88,36.5-2.81V196.11H2808.08V219l32.76,2.34,83.34,222h0l-20.64,55c-4.68,13.11-17.78,19.66-33.69,19.66a121.16,121.16,0,0,1-22-2.34l-5.61,21.53a110.53,110.53,0,0,0,28.08,4.21c33.22,0,50.08-15.44,59.9-41.18L2956,432.91l78.62-211.06,34.16-2.81V196.11Z" transform="translate(-5.17 -4)"/><line class="cls-4" x1="749.94" y1="557.42" x2="2724.52" y2="557.42"/></svg>