<svg viewBox="0 0 629 114.95" xmlns="http://www.w3.org/2000/svg"><g fill="#fff"><path d="m129.08 100.34a.85.85 0 0 1 .76 1.21s-9 17.3-16.58 17.3h-88.37c-7.53 0-16.58-17.3-16.58-17.3a.85.85 0 0 1 .76-1.21h34.67a12.67 12.67 0 0 1 12.67 12.66 12.67 12.67 0 0 1 12.67-12.67z" transform="translate(-1.5 -4.41)"/><path d="m132.39 91.89h-24.7a.84.84 0 0 1 -.84-.84.73.73 0 0 1 .09-.37 42.23 42.23 0 1 0 -75.71 0 .88.88 0 0 1 .08.37.84.84 0 0 1 -.84.84h-24.72a1.71 1.71 0 0 1 -1.12-.42 1.76 1.76 0 0 1 -.51-.8 67.57 67.57 0 1 1 129.9 0 1.79 1.79 0 0 1 -.54.84 1.76 1.76 0 0 1 -1.09.38z" transform="translate(-1.5 -4.41)"/><path d="m153.96 24.93 8.45.58v56.69l-8.45.58v4.7h23.35v-4.7l-8.46-.58v-56.69l8.46-.58v-4.7h-23.35z"/><path d="m229.54 59.22c0-11.15-5.19-16.33-15.76-16.33-6.15 0-11.63 2.11-15 6.05-.1-3.36-1.92-5.09-5.28-5.09a30.75 30.75 0 0 0 -7.21.77l-.38 4.23 6.53.48v37.28l-7.21.58v4.71h20.77v-4.71l-7.21-.58v-32.29c2-3.75 6.63-6.53 14.12-6.53 6.63 0 10.38 3.65 10.38 11.53v28.35c0 3 1.73 4.8 5.19 4.8a41.41 41.41 0 0 0 8.36-.86v-4.42l-7.3-.38z" transform="translate(-1.5 -4.41)"/><path d="m258.37 87.76c-5 0-7.69-2.79-7.69-7.59v-30.94h12.68v-5.38h-12.68v-11.34l-4.9.38-1.44 11-6.53.77-.1 4.61h6.63v30.32c0 8.36 4.71 13.07 13.36 13.07a28.15 28.15 0 0 0 8.36-1.34l-1.26-4.42a27.07 27.07 0 0 1 -6.43.86z" transform="translate(-1.5 -4.41)"/><path d="m289.68 42.89c-13.16 0-20.37 8.26-20.37 24.79 0 17.77 7.3 25.17 21 25.17 9.7 0 15.37-3.84 16-4.23l-1.73-3.94a29.48 29.48 0 0 1 -14 3.27c-9 0-14.32-5-14.89-18.16h32.19v-2.4c.06-18.16-6.96-24.5-18.2-24.5zm-13.93 22.58c.58-12.78 5.86-17.58 14.12-17.58 6.92 0 11.91 3.94 12.11 17.58z" transform="translate(-1.5 -4.41)"/><path d="m327.2 51.54v-2.4c0-3.46-1.83-5.28-4.9-5.28a30.75 30.75 0 0 0 -7.21.77l-.38 4.23 6.53.48v37.27l-7.21.58v4.71h21.52v-4.71l-8-.58v-28.25c1.83-5.67 6.73-9.42 14.7-9.42h3v-6.05h-2.5c-6.42 0-12.28 2.88-15.55 8.65z" transform="translate(-1.5 -4.41)"/><path d="m404.78 20.23h-23.06v4.7l8.65.58-18.26 54.1h-.48l-18.06-54.1 8.17-.58v-4.7h-23.45v4.7l8.07.58 21.72 61.97h6.92l21.52-61.97 8.26-.58z"/><path d="m435.3 59.22c0-11-5.38-16.33-16.53-16.33-7.59 0-13.64 2-16 3.46a4.77 4.77 0 0 0 -2.11 4.42 56.59 56.59 0 0 0 .48 6.05h4.42l.67-6.73a30.93 30.93 0 0 1 12-2.21c7.11 0 10.86 3.65 10.86 11.34v6.25a62.31 62.31 0 0 0 -12.88-1.25c-12 0-17.78 5.67-17.78 14.41 0 8.07 5.48 14.22 14.7 14.22 7.21 0 12.78-3.17 16-8v1.73c0 3.46 1.83 5.38 5.19 5.38a36 36 0 0 0 7.88-.86v-4.2l-6.92-.48zm-6.15 18.64c-1.73 5.14-6.72 10.14-15.08 10.14-6 0-9.22-4-9.22-9.61 0-5.86 3.75-9.7 12.2-9.7a65.46 65.46 0 0 1 12.11 1.15z" transform="translate(-1.5 -4.41)"/><path d="m460.48 51.54v-2.4c0-3.46-1.83-5.28-4.9-5.28a30.75 30.75 0 0 0 -7.21.77l-.37 4.22 6.53.48v37.28l-7.21.58v4.71h21.52v-4.71l-8-.58v-28.25c1.83-5.67 6.73-9.42 14.7-9.42h3v-6.05h-2.54c-6.4 0-12.26 2.88-15.52 8.65z" transform="translate(-1.5 -4.41)"/><path d="m501.41 64.61c-5.28-1.25-12.11-1.92-12.11-8.17 0-4.9 3.17-8.65 10.67-8.65a29.86 29.86 0 0 1 10.86 2l.67 6.92h4.5a45.7 45.7 0 0 0 .48-6.53 4.54 4.54 0 0 0 -2.2-4.18c-2.21-1.35-7.78-3.07-14.32-3.07-11 0-16.72 5.38-16.72 13.64 0 10.09 9.42 11.72 16 13.16 6.82 1.35 13.55 2.59 13.55 9 0 5.76-4 9.22-12.2 9.22a32.78 32.78 0 0 1 -12.3-2.5l-.48-6.82h-4.42a42.69 42.69 0 0 0 -.67 6.53 4.41 4.41 0 0 0 2.4 4.42c2.11 1.25 7.49 3.27 15.47 3.27 12 0 18.16-5.67 18.16-14.32-.05-10.18-9.17-12.1-17.34-13.92z" transform="translate(-1.5 -4.41)"/><path d="m533.28 31.07a4.61 4.61 0 0 0 4.61-4.61 4.68 4.68 0 0 0 -4.61-4.61 4.61 4.61 0 0 0 -4.61 4.61 4.55 4.55 0 0 0 4.61 4.61z" transform="translate(-1.5 -4.41)"/><path d="m536.2 39.44h-11.62l-.29 5 5.57.48v37.09l-6.34.48v4.99h18.93v-4.99l-6.25-.48z"/><path d="m567.37 87.76c-5 0-7.69-2.79-7.69-7.59v-30.94h12.68v-5.38h-12.67v-11.34l-4.9.38-1.44 11-6.53.77-.1 4.61h6.63v30.32c0 8.36 4.71 13.07 13.36 13.07a28.15 28.15 0 0 0 8.36-1.34l-1.25-4.42a27.06 27.06 0 0 1 -6.45.86z" transform="translate(-1.5 -4.41)"/><path d="m610.42 43.85v4.71l7.4.58-12.69 34.86s-.58 1.63-.86 2.79h-.38a21 21 0 0 0 -.77-2.79l-12.78-34.86 7.49-.58v-4.71h-20.83v4.71l6.73.48 17.11 45.58-4.24 11.3c-1 2.69-3.65 4-6.92 4a24.88 24.88 0 0 1 -4.52-.48l-1.16 4.46a22.69 22.69 0 0 0 5.76.86c6.82 0 10.28-3.17 12.3-8.46l5.28-13.84 16.14-43.33 7-.58v-4.7z" transform="translate(-1.5 -4.41)"/></g><path d="m153.97 114.45h405.42" fill="none" stroke="#fff" stroke-linecap="round" stroke-miterlimit="10"/></svg>