<svg id="Layer_1" data-name="Layer 1" xmlns="http://www.w3.org/2000/svg" viewBox="0 0 3067.25 558.59"><defs><style>.cls-1{fill:#fff;}.cls-2{fill:none;stroke:#fff;stroke-linecap:round;stroke-miterlimit:10;}</style></defs><title>WideDarkBgBig</title><path class="cls-1" d="M623.61,472.21a4.12,4.12,0,0,1,3.71,5.91s-44.1,84.38-80.83,84.38H115.57c-36.72,0-80.83-84.38-80.83-84.38a4.12,4.12,0,0,1,3.71-5.91h169A61.78,61.78,0,0,1,269.25,534,61.78,61.78,0,0,1,331,472.21Z" transform="translate(-1.5 -4.41)"/><path class="cls-1" d="M639.79,431H519.31a4.12,4.12,0,0,1-4.12-4.12,3.56,3.56,0,0,1,.42-1.8,204.62,204.62,0,0,0,21.34-91.19C536.94,220.35,444.56,128,331,128S125.06,220.35,125.06,333.91a204.62,204.62,0,0,0,21.33,91.18,4.27,4.27,0,0,1,.41,1.81,4.12,4.12,0,0,1-4.12,4.12H22.21A8.31,8.31,0,0,1,16.77,429a8.56,8.56,0,0,1-2.47-3.89A329.54,329.54,0,0,1,1.5,333.91C1.5,151.93,149,4.41,331,4.41s329.5,147.52,329.5,329.5A329.55,329.55,0,0,1,647.73,425a8.75,8.75,0,0,1-2.61,4.08A8.58,8.58,0,0,1,639.79,431Z" transform="translate(-1.5 -4.41)"/><polygon class="cls-1" points="750.76 121.59 791.99 124.4 791.99 400.84 750.76 403.65 750.76 426.61 864.61 426.61 864.61 403.65 823.38 400.84 823.38 124.4 864.61 121.59 864.61 98.63 750.76 98.63 750.76 121.59"/><path class="cls-1" d="M1113.5,271.72c0-54.35-25.3-79.65-76.84-79.65-30,0-56.69,10.31-73.09,29.52-.47-16.4-9.37-24.83-25.77-24.83-21.08,0-35.14,3.75-35.14,3.75l-1.88,20.62,31.86,2.34v181.8l-35.14,2.81v23H998.71v-23l-35.14-2.81V247.82c9.84-18.27,32.33-31.86,68.88-31.86,32.33,0,50.6,17.8,50.6,56.22V410.4c0,14.52,8.43,23.43,25.3,23.43a201.92,201.92,0,0,0,40.76-4.22V408.06l-35.61-1.88Z" transform="translate(-1.5 -4.41)"/><path class="cls-1" d="M1254.08,410.87c-24.37,0-37.48-13.59-37.48-37V223h61.85V196.75h-61.85V141.46l-23.9,1.88-7,53.41-31.86,3.75-.47,22.49h32.33V371c0,40.76,23,63.72,65.13,63.72a137.25,137.25,0,0,0,40.76-6.56l-6.09-21.56A132,132,0,0,1,1254.08,410.87Z" transform="translate(-1.5 -4.41)"/><path class="cls-1" d="M1406.78,192.06c-64.19,0-99.33,40.29-99.33,120.88,0,86.68,35.61,122.76,102.61,122.76,47.33,0,75-18.74,78.25-20.62l-8.44-19.21s-26.7,15.93-68.4,15.93c-44,0-69.81-24.36-72.62-88.55h157V311.54C1495.8,223,1461.6,192.06,1406.78,192.06Zm-67.94,110.11c2.81-62.32,28.58-85.74,68.87-85.74,33.74,0,58.1,19.21,59,85.74Z" transform="translate(-1.5 -4.41)"/><path class="cls-1" d="M1589.75,234.23V222.52c0-16.87-8.9-25.77-23.89-25.77-21.08,0-35.14,3.75-35.14,3.75l-1.88,20.62,31.86,2.34v181.8l-35.14,2.81v23h105v-23l-38.89-2.81V267.5c8.9-27.64,32.8-45.92,71.69-45.92h14.53V192.06h-12.19C1634.27,192.06,1605.68,206.12,1589.75,234.23Z" transform="translate(-1.5 -4.41)"/><polygon class="cls-1" points="1973.87 98.63 1861.42 98.63 1861.42 121.59 1903.59 124.4 1814.57 388.19 1812.22 388.19 1724.13 124.4 1763.96 121.59 1763.96 98.63 1649.64 98.63 1649.64 121.59 1688.99 124.4 1794.89 426.61 1828.62 426.61 1933.58 124.4 1973.87 121.59 1973.87 98.63"/><path class="cls-1" d="M2116.88,271.72c0-53.41-26.24-79.65-80.59-79.65-37,0-66.53,9.84-77.78,16.87-8,5.62-10.31,12.18-10.31,21.55a275.94,275.94,0,0,0,2.34,29.52h21.55l3.28-32.8c10.78-5.15,33.27-10.78,58.57-10.78,34.67,0,52.95,17.8,52.95,55.29v30.45c-12.65-2.81-35.14-6.09-62.78-6.09-58.57,0-86.68,27.64-86.68,70.28,0,39.36,26.71,69.34,71.69,69.34,35.14,0,62.32-15.46,77.78-38.89v8.44c0,16.87,8.9,26.24,25.3,26.24a175.73,175.73,0,0,0,38.42-4.22V406.65l-33.73-2.34Zm-30,90.9c-8.44,24.83-32.8,49.2-73.56,49.2-29.05,0-45-19.68-45-46.85,0-28.58,18.27-47.32,59.51-47.32a319.21,319.21,0,0,1,59,5.62Z" transform="translate(-1.5 -4.41)"/><path class="cls-1" d="M2239.64,234.23V222.52c0-16.87-8.9-25.77-23.89-25.77-21.08,0-35.14,3.75-35.14,3.75l-1.88,20.62,31.86,2.34v181.8l-35.14,2.81v23h105v-23l-38.89-2.81V267.5c8.9-27.64,32.8-45.92,71.69-45.92h14.53V192.06h-12.19C2284.16,192.06,2255.57,206.12,2239.64,234.23Z" transform="translate(-1.5 -4.41)"/><path class="cls-1" d="M2439.25,298c-25.77-6.09-59-9.37-59-39.82,0-23.9,15.46-42.17,52-42.17,21.55,0,42.17,5.15,52.95,9.84l3.28,33.73h22c.94-2.34,2.34-22,2.34-31.86,0-8.44-2.34-15-10.78-20.62-10.78-6.56-37.95-15-69.81-15-53.41,0-81.53,26.24-81.53,66.53,0,49.2,45.92,57.16,77.78,64.19,33.27,6.56,66.07,12.65,66.07,44,0,28.11-19.68,45-59.51,45-28.11,0-52.95-8.9-60-12.18l-2.34-33.26h-21.55c-.94,2.81-3.28,22.49-3.28,31.86s2.34,16.4,11.71,21.55c10.31,6.09,36.55,15.93,75.44,15.93,58.57,0,88.55-27.64,88.55-69.81C2523.59,316.23,2479.08,306.86,2439.25,298Z" transform="translate(-1.5 -4.41)"/><path class="cls-1" d="M2594.67,134.43a22.5,22.5,0,0,0,22.49-22.49,22.8,22.8,0,0,0-22.49-22.49,22.5,22.5,0,0,0-22.49,22.49A22.21,22.21,0,0,0,2594.67,134.43Z" transform="translate(-1.5 -4.41)"/><polygon class="cls-1" points="2614.73 192.34 2558.03 192.34 2556.62 216.71 2583.8 219.05 2583.8 399.9 2552.88 402.25 2552.88 426.61 2645.18 426.61 2645.18 402.25 2614.73 399.9 2614.73 192.34"/><path class="cls-1" d="M2760.91,410.87c-24.37,0-37.48-13.59-37.48-37V223h61.84V196.75h-61.84V141.46l-23.9,1.88-7,53.41-31.86,3.75-.47,22.49h32.33V371c0,40.76,23,63.72,65.13,63.72a137.28,137.28,0,0,0,40.76-6.56l-6.09-21.56A132,132,0,0,1,2760.91,410.87Z" transform="translate(-1.5 -4.41)"/><path class="cls-1" d="M2970.83,196.75v23l36.07,2.81L2945.05,392.6s-2.81,8-4.21,13.59H2939a102.35,102.35,0,0,0-3.75-13.59L2872.9,222.52l36.55-2.81v-23H2807.77v23l32.8,2.34L2924,444.34h0l-20.66,55.09c-4.69,13.12-17.8,19.68-33.73,19.68a121.3,121.3,0,0,1-22-2.34L2842,538.31a110.66,110.66,0,0,0,28.11,4.22c33.26,0,50.14-15.46,60-41.23l25.77-67.47,78.71-211.31,34.2-2.81v-23Z" transform="translate(-1.5 -4.41)"/><line class="cls-2" x1="750.84" y1="558.09" x2="2727.79" y2="558.09"/></svg>