<svg id="Layer_1" data-name="Layer 1" xmlns="http://www.w3.org/2000/svg" xmlns:xlink="http://www.w3.org/1999/xlink" viewBox="0 0 633.9 108.1"><defs><style>.cls-1{fill:url(#linear-gradient);}.cls-2{fill:url(#linear-gradient-2);}.cls-3{fill:#ff671b;}</style><linearGradient id="linear-gradient" x1="3213.03" y1="-11.24" x2="3153.5" y2="48.29" gradientTransform="translate(3246.93 112) rotate(180)" gradientUnits="userSpaceOnUse"><stop offset="0.3" stop-color="#f16528"/><stop offset="0.47" stop-color="#f26b27"/><stop offset="0.7" stop-color="#f47b23"/><stop offset="0.95" stop-color="#f7961d"/><stop offset="1" stop-color="#f89c1c"/></linearGradient><linearGradient id="linear-gradient-2" x1="21.2" y1="10.99" x2="105.95" y2="95.75" gradientTransform="matrix(1, 0, 0, -1, 0, 112)" gradientUnits="userSpaceOnUse"><stop offset="0.1" stop-color="#006880"/><stop offset="0.31" stop-color="#006d86"/><stop offset="0.58" stop-color="#007a96"/><stop offset="0.88" stop-color="#0090b1"/><stop offset="1" stop-color="#009abe"/></linearGradient></defs><title>IV-logo-wide</title><path class="cls-1" d="M120.3,90.9a1,1,0,0,1,.7.4.68.68,0,0,1,0,.8s-8.5,16.3-15.6,16.3H22C14.9,108.3,6.3,92,6.3,92a1,1,0,0,1,0-.8.7.7,0,0,1,.7-.3H39.7a12,12,0,0,1,12,12,12,12,0,0,1,12-12Z" transform="translate(0.2 -0.3)"/><path class="cls-2" d="M123.5,82.9H100.2a1.42,1.42,0,0,1-.6-.2.85.85,0,0,1-.2-.6c0-.3.1-.3.1-.3A39.92,39.92,0,1,0,23.8,64.1a40.72,40.72,0,0,0,4.1,17.7,1,1,0,0,1,.1.4.86.86,0,0,1-.3.6.65.65,0,0,1-.5.2H3.9a1.86,1.86,0,0,1-1.1-.4,1.46,1.46,0,0,1-.5-.8,63.81,63.81,0,1,1,122.6-.1,1.46,1.46,0,0,1-.5.8A1.39,1.39,0,0,1,123.5,82.9Z" transform="translate(0.2 -0.3)"/><path class="cls-3" d="M332.4,19.6V15.1h23.4a.52.52,0,0,1,.2.4c.4,4.2.4,4.2-3.8,4.5-1.3.1-2.7.2-4.4.3C353.9,38.7,360,56.8,366.1,75a.75.75,0,0,1,.5.1c6.1-18.1,12.2-36.2,18.5-54.7-3-.2-5.8-.5-8.6-.7V15.2h23.1v4.6c-1.9.1-3.8.4-5.7.4s-2.7.7-3.3,2.5c-6.7,19.4-13.5,38.8-20.2,58.3a2.87,2.87,0,0,1-3.4,2.3c-4.3-.1-4.4,0-5.8-4q-9-25.35-17.8-50.7c-.8-2.3-1.5-4.6-2.5-6.8a3,3,0,0,0-2.1-1.5A32.17,32.17,0,0,0,332.4,19.6Z" transform="translate(0.2 -0.3)"/><path class="cls-3" d="M586.9,105.1c.4-1.4.7-2.7,1.1-4.1a46.08,46.08,0,0,0,5.2.2c2.6-.1,4.9-.9,6-3.4,2.1-5,3.9-10.1,6-15.5-3,.3-3.3-1.9-4-3.7-4.6-12.3-9.3-24.7-13.8-37-.6-1.7-1.4-2.6-3.2-2.3h-.7c-4.3-.3-4.3-.3-3.6-4.8h20.8V39c-2.4.2-4.8.5-7.4.7,4.7,12.7,9.2,25.2,13.9,38.1,4.7-12.8,9.2-25.3,13.8-38.1-2.5-.2-4.8-.5-7.3-.7V34.4h20V39c-1.6.1-3.2.4-4.7.4a2.79,2.79,0,0,0-3,2.1q-8.1,21.9-16.3,43.8c-1.5,4.1-3.2,8.1-4.7,12.2C602.3,105.6,594.9,107.6,586.9,105.1Z" transform="translate(0.2 -0.3)"/><path class="cls-3" d="M427,77.3c2.4.2,4.5.4,7,.6a24.24,24.24,0,0,0,0,2.7c.1,1.3-.6,1.8-1.7,1.9-2,.2-4.1.4-6.1.5-3.6,0-5.1-1.4-5.5-4.9,0-.4-.1-.9-.1-1.6a10.9,10.9,0,0,1-1.3,1.1c-5.1,5.6-11.6,7.2-18.7,5.8-6.5-1.2-10.6-6.3-10.9-13.1-.4-7.1,3.1-12.1,9.7-14.2,5.4-1.7,10.9-1.2,16.4-.7,1.6.2,3.1.4,5.1.7-.3-3.7-.2-7.3-.8-10.7a8.21,8.21,0,0,0-8.5-6.8c-4,0-8,.8-12.1,1.2-1.6.2-2.2,1.2-2.3,2.8s-.3,3-.4,4.4c-.3.1-.5.3-.7.3-3.7.2-3.7.2-4-3.6-.4-5.7.5-7.3,5.9-8.6a56.5,56.5,0,0,1,12.9-1.8c10.6-.1,16,5.5,16.1,16,.1,8.4,0,16.7,0,25.1Zm-6.4-16.5a49.74,49.74,0,0,0-15.8-1c-5.7.9-8.9,4.5-8.6,10s3.5,9,8.8,9.2a16.58,16.58,0,0,0,11.3-3.7C421.2,71.4,421.2,66.3,420.6,60.8Z" transform="translate(0.2 -0.3)"/><path class="cls-3" d="M195,78.2v4.6H174.3V78.2c1.8-.2,3.7-.4,5.5-.5,1.1-.1,1.6-.4,1.6-1.6V40.6a4.5,4.5,0,0,0-.2-.8l-6-.6c-.7-3.8-.4-4.2,3.2-4.7a24.52,24.52,0,0,1,2.7-.2c4.5-.1,5.3.4,6.9,4.2,2.4-1.3,4.7-2.8,7.3-3.9a21.81,21.81,0,0,1,13.6-.7c5.5,1.3,8.7,5,9.7,10.4a40.5,40.5,0,0,1,.5,7c.1,7.9,0,15.8,0,23.7v2.6c2.5.2,4.7.4,7.1.6V83c-3.3.1-6.6.4-9.9.2-2.5-.2-3.5-1.9-3.5-4.9V51.2a22.88,22.88,0,0,0-.6-5.8,8.23,8.23,0,0,0-4.9-6.1c-5.3-2.3-14.3-.4-18,3.9a5.55,5.55,0,0,0-1.3,3.4c-.1,9.6,0,19.3-.1,28.9,0,1.9.7,2.3,2.3,2.3S193.3,78.1,195,78.2Z" transform="translate(0.2 -0.3)"/><path class="cls-3" d="M297.6,60.6h-32A15.09,15.09,0,0,0,279.8,79a34.38,34.38,0,0,0,14.6-3.2c.6,1.3,1.1,2.5,1.8,3.8-7,4.1-14.4,5-22.1,3.7-6.9-1.2-11.4-5.3-13.5-11.8a39.55,39.55,0,0,1-1.7-9.1c-.5-6.1-.2-12.2,2.2-18,2.9-6.8,8.1-10.3,15.3-11,5.8-.6,11.4,0,15.6,4.6a19.91,19.91,0,0,1,3.6,5.9C297.7,49.2,297.8,54.7,297.6,60.6Zm-5.7-4.5c-.5-3.2-.8-6.2-1.5-9.1-1.1-4.2-3.5-7.4-8-8.2-4.9-.9-9.6-.3-13,3.8-3.3,3.8-4.1,8.6-4.2,13.6C274.1,56.1,282.7,56.1,291.9,56.1Z" transform="translate(0.2 -0.3)"/><path class="cls-3" d="M478.3,69.7h4.5c.1,1.8.2,3.6.4,5.3a2.38,2.38,0,0,0,1.2,1.8c5,1.8,10.2,2.8,15.5,1.8s8-4,8.1-8.8c.1-2.9-1.1-5.3-3.8-6.4a93.72,93.72,0,0,0-9-2.8c-3.2-.9-6.4-1.6-9.5-2.7-4.9-1.8-7.5-5.4-7.5-10.7,0-5.5,2.2-9.6,7.3-12,5.7-2.6,11.6-2.3,17.5-1.1a55.17,55.17,0,0,1,5.4,1.6c2.5.9,3.6,2.8,3.5,5.5-.1,1.9-.3,3.9-.4,6h-4.6c-.2-1.8-.3-3.7-.6-5.5a2.78,2.78,0,0,0-1.4-1.9,25.74,25.74,0,0,0-14-1,8,8,0,0,0-5.9,4.8c-1.7,4.4-.2,8,4.3,9.6,3.4,1.2,7,1.8,10.5,2.7a50.75,50.75,0,0,1,7.5,2.5c8.4,4.1,9.4,15.9,2,21.6A19.12,19.12,0,0,1,499,83.6c-5.9.4-11.8,0-17.3-2.4-3.4-1.4-4.1-2.6-3.9-6.3C477.9,73.3,478.1,71.5,478.3,69.7Z" transform="translate(0.2 -0.3)"/><path class="cls-3" d="M142.1,19.6V15h23.4v4.6l-8.3.6V77.6c2.7.2,5.4.5,8.3.7v4.6H142.2V78.3a42.59,42.59,0,0,1,6.1-.4c1.9,0,2.4-.7,2.4-2.5-.1-15.7,0-31.4,0-47,0-2-.1-4.1,0-6.1.1-1.5-.4-2.2-2-2.2C146.5,20,144.4,19.7,142.1,19.6Z" transform="translate(0.2 -0.3)"/><path class="cls-3" d="M555.2,39.7h-6.4a4.5,4.5,0,0,1-.2-.8c.2-4.6-.5-3.9,3.7-4.2,2.2-.2,3.4-.8,3.3-3.3,0-1.9.6-3.7.7-5.6.1-2.1.8-3.1,2.9-2.9a17.48,17.48,0,0,0,2.3,0V34.2h12.8v5.3H561.7a24.4,24.4,0,0,0-.1,2.6c0,9,.2,17.9-.1,26.9-.3,9.2,4.9,10.2,11.3,9.4a17.69,17.69,0,0,0,3-.6c.4,1.5.8,2.9,1.3,4.4-5.1,1.4-10,2.1-14.9.2a10.43,10.43,0,0,1-6.7-8.9,61.88,61.88,0,0,1-.3-7.4V39.7Z" transform="translate(0.2 -0.3)"/><path class="cls-3" d="M241,34.4h12.7v5.3H241.2c0,1.1-.1,1.9-.1,2.7,0,9,.2,17.9-.1,26.9-.3,8.7,4.6,10.2,11.2,9.3,1-.1,2-.4,3.2-.6.4,1.5.8,2.9,1.2,4.4-5.3,1.4-10.4,2.2-15.4,0-4.6-2.1-6.5-6.1-6.5-11-.1-9.6,0-19.1-.1-28.7V39.8h-6.7a16,16,0,0,0,0-2.2c-.3-2,.6-2.6,2.5-2.7,4.2-.3,4.2-.4,4.7-4.6.3-2.3.6-4.6,1-7,1.7-.1,3.1-.2,4.9-.3C241,26.8,241,30.4,241,34.4Z" transform="translate(0.2 -0.3)"/><path class="cls-3" d="M327.3,78.3v4.6H305.7V78.3a50.5,50.5,0,0,0,5.6-.6c.6-.1,1.5-.9,1.5-1.3.1-12,0-24,0-35.9a.91.91,0,0,0-.3-.5l-5.9-.6c-.6-3.9-.4-4.2,3.2-4.7.2,0,.4-.1.7-.1,6.3-.8,7.8.4,8.6,7.1,4.5-6.4,10.6-8.7,18-8.1v5.9c-1.3.1-2.5.1-3.8.2-3.8.2-7.3,1.1-10.2,3.7a10.8,10.8,0,0,0-3.9,8.3q.15,12,0,24c0,1.7.4,2.5,2.2,2.4A23.64,23.64,0,0,1,327.3,78.3Z" transform="translate(0.2 -0.3)"/><path class="cls-3" d="M453.8,77.6c2.8.3,5.3.5,8,.7v4.5H440.3V78.3c1.8-.2,3.6-.4,5.5-.5,1-.1,1.7-.3,1.7-1.5,0-11.9,0-23.8-.1-35.7a3.93,3.93,0,0,0-.2-.6c-2-.2-4-.4-6.1-.7-.5-4-.4-4.2,3.4-4.7.1,0,.3-.1.4-.1,6.4-.8,7.9.3,8.8,7.1,4.5-6.4,10.5-8.7,18-8.1v5.8c-2.3.2-4.5.2-6.6.6-4.7.8-8.4,3.1-10.5,7.6a5.56,5.56,0,0,0-.6,2.1C453.8,58.8,453.8,68,453.8,77.6Z" transform="translate(0.2 -0.3)"/><path class="cls-3" d="M529.2,39.9c-1.9-.2-3.5-.4-5.2-.6V34.4h11.6v43c2.2.2,4.1.4,6.2.6v4.9H523V78.1l6.1-.6C529.2,64.9,529.2,52.5,529.2,39.9Z" transform="translate(0.2 -0.3)"/><path class="cls-3" d="M531.4,21.3a4.6,4.6,0,1,1,0-9.2,4.59,4.59,0,0,1,4.6,4.6A4.72,4.72,0,0,1,531.4,21.3Z" transform="translate(0.2 -0.3)"/></svg>