<?xml version="1.0" encoding="utf-8"?>
<!-- Generator: Adobe Illustrator 21.1.0, SVG Export Plug-In . SVG Version: 6.00 Build 0)  -->
<svg version="1.1" id="Layer_1" xmlns="http://www.w3.org/2000/svg" xmlns:xlink="http://www.w3.org/1999/xlink" x="0px" y="0px"
	 viewBox="0 0 648 116" style="enable-background:new 0 0 648 116;" xml:space="preserve">
<style type="text/css">
	.st0{fill:#FF671B;}
	.st1{fill:url(#SVGID_1_);}
	.st2{fill:url(#SVGID_2_);}
</style>
<g>
	<path class="st0" d="M348,25.6c0-1.7,0-3,0-4.5c7.8,0,15.6,0,23.3,0c0.1,0.1,0.2,0.2,0.2,0.4c0.4,4.2,0.4,4.2-3.7,4.4
		c-1.3,0.1-2.7,0.2-4.4,0.3c6.1,18.3,12.1,36.4,18.2,54.4c0.2,0,0.4,0,0.5,0.1c6.1-18,12.2-36,18.4-54.4c-3-0.2-5.7-0.4-8.6-0.7
		c0-1.5,0-2.9,0-4.5c7.6,0,15.2,0,23,0c0,1.4,0,2.8,0,4.5c-1.9,0.1-3.8,0.4-5.7,0.4c-1.9,0-2.7,0.7-3.3,2.5
		c-6.6,19.3-13.4,38.6-20.1,58c-0.6,1.8-1.5,2.4-3.4,2.3c-4.3-0.1-4.4,0-5.8-3.9C370.8,68,364.9,51.2,359,34.3
		c-0.8-2.3-1.5-4.6-2.5-6.7c-0.3-0.7-1.3-1.4-2.1-1.5C352.4,25.8,350.3,25.8,348,25.6z"/>
	<path class="st0" d="M601.4,110.7c0.4-1.4,0.7-2.7,1.1-4.1c1.8,0.1,3.5,0.3,5.2,0.2c2.5-0.1,4.9-0.9,5.9-3.4c2.1-5,3.9-10,6-15.5
		c-3,0.3-3.3-1.9-3.9-3.6c-4.6-12.3-9.2-24.5-13.8-36.8c-0.6-1.6-1.4-2.6-3.2-2.3c-0.2,0-0.4,0-0.7,0c-4.2-0.2-4.2-0.2-3.6-4.8
		c6.8,0,13.7,0,20.7,0c0,1.5,0,2.9,0,4.5c-2.4,0.2-4.7,0.5-7.4,0.7c4.6,12.7,9.2,25.1,13.9,37.9c4.6-12.8,9.1-25.2,13.8-37.9
		c-2.5-0.2-4.8-0.5-7.2-0.7c0-1.6,0-3,0-4.5c6.6,0,13.2,0,19.9,0c0,1.5,0,2.9,0,4.5c-1.6,0.1-3.1,0.3-4.7,0.4
		c-1.5,0-2.4,0.5-2.9,2.1C635,62,629.6,76.5,624.2,91.1c-1.5,4.1-3.2,8.1-4.6,12.2C616.7,111.2,609.3,113.2,601.4,110.7z"/>
	<path class="st0" d="M442.2,83.1c2.4,0.2,4.5,0.4,6.9,0.6c0,1-0.1,1.9,0,2.7c0.1,1.3-0.6,1.8-1.7,1.9c-2,0.2-4,0.4-6.1,0.4
		c-3.6,0-5-1.4-5.4-4.9c0-0.4-0.1-0.9-0.1-1.6c-0.5,0.5-0.9,0.8-1.2,1.1c-5.1,5.6-11.5,7.1-18.6,5.8c-6.5-1.2-10.5-6.3-10.9-13.1
		c-0.4-7,3.1-12.1,9.7-14.2c5.3-1.7,10.8-1.2,16.3-0.7c1.5,0.2,3.1,0.4,5.1,0.7c-0.3-3.7-0.2-7.3-0.8-10.7c-0.7-4-4-6.7-8.4-6.8
		c-4,0-8,0.8-12,1.2c-1.6,0.2-2.2,1.2-2.3,2.8c-0.1,1.5-0.3,3-0.4,4.4c-0.3,0.1-0.5,0.3-0.7,0.3c-3.7,0.2-3.7,0.2-4-3.5
		c-0.4-5.6,0.5-7.3,5.9-8.6c4.2-1,8.5-1.8,12.8-1.8c10.5-0.1,15.9,5.4,16,16c0.1,8.3,0,16.7,0,25C442.2,81.2,442.2,82,442.2,83.1z
		 M435.8,66.6c-4.1-1.1-11.8-1.6-15.7-1c-5.7,0.9-8.8,4.5-8.6,9.9c0.3,5.5,3.5,9,8.8,9.2c4.2,0.2,7.9-1.1,11.3-3.7
		C436.4,77.2,436.3,72.1,435.8,66.6z"/>
	<path class="st0" d="M211.3,84c0,1.7,0,3.1,0,4.6c-6.9,0-13.7,0-20.6,0c0-1.5,0-2.9,0-4.6c1.8-0.2,3.7-0.4,5.5-0.5
		c1.1-0.1,1.6-0.4,1.6-1.6c0-11.8,0-23.6,0-35.3c0-0.2-0.1-0.4-0.2-0.8c-2-0.2-4-0.4-5.9-0.6c-0.7-3.8-0.4-4.2,3.2-4.7
		c0.9-0.1,1.8-0.2,2.7-0.2c4.4-0.1,5.3,0.4,6.8,4.2c2.4-1.3,4.7-2.8,7.2-3.8c4.4-1.8,9-1.8,13.5-0.7c5.5,1.3,8.6,5,9.6,10.4
		c0.4,2.3,0.5,4.6,0.5,6.9c0.1,7.9,0,15.8,0,23.6c0,0.8,0,1.6,0,2.6c2.5,0.2,4.7,0.4,7.1,0.6c0,1.4,0,2.7,0,4.7
		c-3.3,0.1-6.6,0.4-9.9,0.2c-2.5-0.2-3.5-1.9-3.5-4.9c0-9,0-18,0-27c0-1.9-0.1-3.9-0.6-5.8c-0.6-2.8-2.2-4.9-4.9-6.1
		c-5.2-2.3-14.2-0.4-17.9,3.9c-0.7,0.9-1.3,2.2-1.3,3.4c-0.1,9.6,0,19.2-0.1,28.8c0,1.9,0.7,2.3,2.3,2.3
		C207.9,83.6,209.5,83.8,211.3,84z"/>
	<path class="st0" d="M313.3,66.4c-10.8,0-21.4,0-31.9,0c-1.9,9.5,4.8,18.1,14.1,18.3c5,0.1,9.8-1.1,14.6-3.2
		c0.6,1.3,1.1,2.4,1.8,3.8c-7,4.1-14.3,5-22,3.7c-6.9-1.2-11.4-5.3-13.5-11.8c-0.9-2.9-1.5-6-1.7-9c-0.5-6.1-0.2-12.1,2.2-17.9
		c2.9-6.8,8.1-10.2,15.2-10.9c5.8-0.6,11.4,0,15.6,4.6c1.5,1.7,2.8,3.8,3.6,5.9C313.4,55.1,313.5,60.6,313.3,66.4z M307.7,61.9
		c-0.5-3.2-0.8-6.2-1.5-9.1c-1-4.2-3.5-7.4-8-8.2c-4.9-0.9-9.5-0.3-13,3.8c-3.3,3.8-4,8.5-4.2,13.5
		C289.9,61.9,298.5,61.9,307.7,61.9z"/>
	<path class="st0" d="M493.3,75.5c1.6,0,2.9,0,4.5,0c0.1,1.8,0.1,3.6,0.4,5.3c0.1,0.7,0.6,1.6,1.2,1.8c5,1.8,10.1,2.8,15.4,1.8
		c5.2-1,7.9-4,8-8.7c0.1-2.9-1.1-5.3-3.8-6.3c-2.9-1.2-6-1.9-9-2.8c-3.2-0.9-6.4-1.6-9.5-2.7c-4.8-1.8-7.4-5.4-7.4-10.7
		c0-5.4,2.2-9.6,7.3-11.9c5.6-2.6,11.5-2.3,17.4-1.1c1.8,0.4,3.6,1,5.4,1.6c2.5,0.9,3.6,2.8,3.5,5.4c-0.1,1.9-0.3,3.9-0.4,5.9
		c-1.5,0-2.9,0-4.6,0c-0.2-1.8-0.3-3.6-0.6-5.4c-0.1-0.7-0.8-1.7-1.4-1.9c-4.5-1.5-9.2-2.1-14-1c-2.7,0.6-4.8,2.2-5.8,4.8
		c-1.7,4.4-0.2,8,4.2,9.6c3.4,1.2,7,1.8,10.4,2.7c2.5,0.7,5.1,1.4,7.4,2.5c8.3,4.1,9.4,15.8,2,21.5c-3,2.3-6.5,3.3-10.3,3.5
		c-5.9,0.4-11.7,0-17.2-2.4c-3.4-1.4-4.1-2.6-3.9-6.3C492.8,79.1,493.1,77.3,493.3,75.5z"/>
	<path class="st0" d="M158.6,25.6c0-1.7,0-3,0-4.5c7.7,0,15.4,0,23.2,0c0,1.4,0,2.8,0,4.5c-2.7,0.2-5.4,0.4-8.2,0.6
		c0,19.1,0,38,0,57.1c2.7,0.2,5.4,0.4,8.2,0.7c0,1.5,0,3,0,4.6c-7.8,0-15.4,0-23.2,0c0-1.5,0-2.9,0-4.6c2.1-0.2,4.1-0.5,6.1-0.4
		c1.9,0,2.4-0.7,2.4-2.5c-0.1-15.6,0-31.2,0-46.8c0-2-0.1-4.1,0-6.1c0.1-1.5-0.4-2.2-2-2.2C162.9,26,160.8,25.8,158.6,25.6z"/>
	<path class="st0" d="M569.8,45.7c-2.4,0-4.4,0-6.4,0c-0.1-0.4-0.2-0.6-0.2-0.8c0.2-4.5-0.5-3.8,3.7-4.2c2.2-0.2,3.4-0.8,3.3-3.3
		c0-1.8,0.6-3.7,0.7-5.6c0.1-2,0.8-3.1,2.9-2.8c0.7,0.1,1.3,0,2.3,0c0,3.7,0,7.4,0,11.3c4.4,0,8.5,0,12.7,0c0,1.8,0,3.5,0,5.3
		c-4.1,0-8.2,0-12.5,0c-0.1,1-0.1,1.8-0.1,2.6c0,8.9,0.2,17.9-0.1,26.8c-0.3,9.2,4.9,10.1,11.3,9.3c0.9-0.1,1.9-0.3,3-0.5
		c0.4,1.5,0.8,2.9,1.3,4.4c-5.1,1.4-10,2.1-14.9,0.2c-4-1.5-6.1-4.8-6.7-8.9c-0.3-2.4-0.3-4.9-0.3-7.4c0-7.9,0-15.7,0-23.6
		C569.8,47.6,569.8,46.8,569.8,45.7z"/>
	<path class="st0" d="M257,40.3c4.5,0,8.5,0,12.6,0c0,1.8,0,3.4,0,5.3c-4.1,0-8.2,0-12.5,0c0,1.1-0.1,1.8-0.1,2.6
		c0,8.9,0.2,17.9-0.1,26.8c-0.3,8.6,4.6,10.1,11.1,9.3c1-0.1,2-0.4,3.2-0.6c0.4,1.5,0.8,2.8,1.2,4.4c-5.3,1.4-10.3,2.2-15.3,0
		c-4.6-2.1-6.5-6.1-6.5-10.9c-0.1-9.5,0-19.1-0.1-28.6c0-0.9,0-1.8,0-2.9c-2.3,0-4.4,0-6.6,0c0-0.9,0.1-1.6,0-2.2
		c-0.3-2,0.6-2.6,2.5-2.7c4.2-0.3,4.2-0.4,4.7-4.6c0.3-2.3,0.6-4.6,1-7c1.6-0.1,3.1-0.2,4.9-0.3C257,32.8,257,36.4,257,40.3z"/>
	<path class="st0" d="M342.9,84c0,1.6,0,3,0,4.6c-7.2,0-14.3,0-21.5,0c0-1.5,0-2.9,0-4.5c1.9-0.2,3.8-0.2,5.6-0.6
		c0.6-0.1,1.5-0.9,1.5-1.3c0.1-11.9,0-23.8,0-35.8c0-0.1-0.1-0.3-0.3-0.5c-1.9-0.2-3.9-0.4-5.9-0.6c-0.6-3.9-0.4-4.2,3.2-4.7
		c0.2,0,0.4-0.1,0.7-0.1c6.3-0.8,7.8,0.4,8.5,7.1c4.5-6.4,10.5-8.6,17.9-8.1c0,2,0,3.8,0,5.8c-1.3,0.1-2.5,0.1-3.8,0.2
		c-3.8,0.2-7.3,1.1-10.2,3.7c-2.4,2.2-3.9,4.8-3.9,8.2c0.1,7.9,0.1,15.9,0,23.8c0,1.7,0.4,2.4,2.2,2.4C339,83.6,340.9,83.8,342.9,84
		z"/>
	<path class="st0" d="M468.8,83.3c2.8,0.3,5.3,0.5,7.9,0.7c0,1.5,0,2.9,0,4.5c-7.1,0-14.2,0-21.4,0c0-1.4,0-2.8,0-4.5
		c1.8-0.2,3.6-0.4,5.4-0.5c1-0.1,1.7-0.3,1.7-1.5c0-11.8,0-23.7-0.1-35.5c0-0.1-0.1-0.3-0.2-0.6c-2-0.2-4-0.4-6-0.6
		c-0.5-4-0.3-4.1,3.4-4.7c0.1,0,0.3-0.1,0.4-0.1c6.4-0.8,7.8,0.3,8.7,7c4.4-6.4,10.5-8.6,17.9-8.1c0,2,0,3.8,0,5.7
		c-2.3,0.2-4.4,0.2-6.6,0.6c-4.7,0.8-8.4,3.1-10.5,7.5c-0.3,0.7-0.6,1.4-0.6,2.1C468.8,64.6,468.8,73.9,468.8,83.3z"/>
	<path class="st0" d="M543.9,45.8c-1.9-0.2-3.5-0.4-5.2-0.6c0-1.6,0-3.1,0-4.9c2,0,3.9,0,5.7,0c1.9,0,3.7,0,5.9,0
		c0,14.3,0,28.5,0,42.8c2.2,0.2,4.1,0.4,6.2,0.6c0,1.6,0,3.1,0,4.8c-6.2,0-12.3,0-18.7,0c0-1.6,0-3.1,0-4.8c2-0.2,4-0.4,6.1-0.6
		C543.9,70.7,543.9,58.4,543.9,45.8z"/>
	<path class="st0" d="M546,27.3c-2.6,0-4.6-1.9-4.7-4.4c-0.1-2.6,2-4.7,4.7-4.7c2.5,0,4.6,2,4.6,4.6C550.6,25.2,548.6,27.3,546,27.3
		z"/>
</g>
<g>
	
		<linearGradient id="SVGID_1_" gradientUnits="userSpaceOnUse" x1="3732.9597" y1="132.0403" x2="3668.9834" y2="68.0638" gradientTransform="matrix(-1 0 0 1 3769.4792 0)">
		<stop  offset="0.1" style="stop-color:#006880"/>
		<stop  offset="0.3023" style="stop-color:#006C84"/>
		<stop  offset="0.567" style="stop-color:#007893"/>
		<stop  offset="0.8651" style="stop-color:#008DAD"/>
		<stop  offset="1" style="stop-color:#009BBF"/>
	</linearGradient>
	<path class="st1" d="M129.3,97.3c0,0,0.4,0,0.7,0.4c0.3,0.4,0,0.8,0,0.8s-9.2,17.5-16.8,17.5H23.7c-7.6,0-16.8-17.5-16.8-17.5
		s-0.2-0.4,0-0.8c0.3-0.4,0.7-0.4,0.7-0.4h35.1c7.1,0,12.8,5.8,12.8,12.8c0-7.1,5.8-12.8,12.8-12.8H129.3z"/>
	<linearGradient id="SVGID_2_" gradientUnits="userSpaceOnUse" x1="23.0085" y1="108.1028" x2="113.993" y2="17.1183">
		<stop  offset="0.3" style="stop-color:#F26529"/>
		<stop  offset="0.4405" style="stop-color:#F26A28"/>
		<stop  offset="0.6244" style="stop-color:#F47726"/>
		<stop  offset="0.8313" style="stop-color:#F68A22"/>
		<stop  offset="1" style="stop-color:#F99D1C"/>
	</linearGradient>
	<path class="st2" d="M132.7,88.7h-25c-0.2,0-0.5-0.1-0.6-0.3c-0.1-0.1-0.2-0.4-0.2-0.6c0-0.2,0.1-0.4,0.1-0.4
		c2.8-5.7,4.4-12.2,4.4-19c0-23.6-19.2-42.8-42.8-42.8S25.7,44.9,25.7,68.5c0,6.8,1.6,13.2,4.4,19c0,0,0.1,0.2,0.1,0.4
		s-0.1,0.5-0.3,0.7s-0.5,0.2-0.6,0.2h-25c-0.3,0-0.7-0.1-1.1-0.4c-0.4-0.3-0.5-0.8-0.5-0.8c-1.7-6-2.7-12.4-2.7-19
		C0,30.7,30.7,0,68.5,0C106.3,0,137,30.7,137,68.5c0,6.6-0.9,12.9-2.7,18.9c0,0-0.1,0.5-0.5,0.8C133.4,88.6,132.9,88.7,132.7,88.7z"
		/>
</g>
</svg>
